<?xml version="1.0" encoding="UTF-8"?>
<svg version="1.1" xmlns="http://www.w3.org/2000/svg" width="702" height="618">
<path d="M0 0 C13.2 0 26.4 0 40 0 C40 0.66 40 1.32 40 2 C42.64 2 45.28 2 48 2 C48 2.66 48 3.32 48 4 C51.3 4 54.6 4 58 4 C58 4.66 58 5.32 58 6 C60.64 6 63.28 6 66 6 C66 6.66 66 7.32 66 8 C67.98 8 69.96 8 72 8 C72 8.66 72 9.32 72 10 C73.98 10 75.96 10 78 10 C78 10.66 78 11.32 78 12 C79.32 12 80.64 12 82 12 C82 12.66 82 13.32 82 14 C83.32 14 84.64 14 86 14 C86 14.66 86 15.32 86 16 C87.98 16 89.96 16 92 16 C92 16.66 92 17.32 92 18 C93.32 18 94.64 18 96 18 C96 18.66 96 19.32 96 20 C96.66 20 97.32 20 98 20 C98 20.66 98 21.32 98 22 C99.32 22 100.64 22 102 22 C102 22.66 102 23.32 102 24 C103.32 24 104.64 24 106 24 C106 24.66 106 25.32 106 26 C106.66 26 107.32 26 108 26 C108 26.66 108 27.32 108 28 C108.66 28 109.32 28 110 28 C110 28.66 110 29.32 110 30 C111.32 30 112.64 30 114 30 C114 30.66 114 31.32 114 32 C114.66 32 115.32 32 116 32 C116 32.66 116 33.32 116 34 C116.66 34 117.32 34 118 34 C118 34.66 118 35.32 118 36 C119.32 36 120.64 36 122 36 C122 36.66 122 37.32 122 38 C122.66 38 123.32 38 124 38 C124 38.66 124 39.32 124 40 C124.66 40 125.32 40 126 40 C126 40.66 126 41.32 126 42 C126.66 42 127.32 42 128 42 C128 42.66 128 43.32 128 44 C128.66 44 129.32 44 130 44 C130 44.66 130 45.32 130 46 C130.66 46 131.32 46 132 46 C132 46.66 132 47.32 132 48 C132.66 48 133.32 48 134 48 C134 48.66 134 49.32 134 50 C134.66 50 135.32 50 136 50 C136 50.66 136 51.32 136 52 C136.66 52 137.32 52 138 52 C138 52.66 138 53.32 138 54 C138.66 54 139.32 54 140 54 C140 54.66 140 55.32 140 56 C140.66 56 141.32 56 142 56 C142 57.32 142 58.64 142 60 C142.66 60 143.32 60 144 60 C144 60.66 144 61.32 144 62 C144.66 62 145.32 62 146 62 C146 62.66 146 63.32 146 64 C146.66 64 147.32 64 148 64 C148 65.32 148 66.64 148 68 C148.66 68 149.32 68 150 68 C150 68.66 150 69.32 150 70 C150.66 70 151.32 70 152 70 C152 71.32 152 72.64 152 74 C152.66 74 153.32 74 154 74 C154 74.66 154 75.32 154 76 C154.66 76 155.32 76 156 76 C156 77.32 156 78.64 156 80 C156.66 80 157.32 80 158 80 C158 81.32 158 82.64 158 84 C158.66 84 159.32 84 160 84 C160 85.32 160 86.64 160 88 C160.66 88 161.32 88 162 88 C162 89.32 162 90.64 162 92 C162.66 92 163.32 92 164 92 C164 93.32 164 94.64 164 96 C164.66 96 165.32 96 166 96 C166 97.98 166 99.96 166 102 C166.66 102 167.32 102 168 102 C168 103.98 168 105.96 168 108 C168.66 108 169.32 108 170 108 C170 109.98 170 111.96 170 114 C170.66 114 171.32 114 172 114 C172 115.98 172 117.96 172 120 C172.66 120 173.32 120 174 120 C174 123.96 174 127.92 174 132 C174.66 132 175.32 132 176 132 C176 147.18 176 162.36 176 178 C175.34 178 174.68 178 174 178 C174 181.3 174 184.6 174 188 C173.34 188 172.68 188 172 188 C172 191.3 172 194.6 172 198 C171.34 198 170.68 198 170 198 C170 199.32 170 200.64 170 202 C169.34 202 168.68 202 168 202 C168 203.98 168 205.96 168 208 C167.34 208 166.68 208 166 208 C166 209.98 166 211.96 166 214 C165.34 214 164.68 214 164 214 C164 215.32 164 216.64 164 218 C163.34 218 162.68 218 162 218 C162 219.32 162 220.64 162 222 C161.34 222 160.68 222 160 222 C160 223.32 160 224.64 160 226 C159.34 226 158.68 226 158 226 C158 227.32 158 228.64 158 230 C157.34 230 156.68 230 156 230 C156 231.32 156 232.64 156 234 C155.34 234 154.68 234 154 234 C154 235.32 154 236.64 154 238 C153.34 238 152.68 238 152 238 C152 238.66 152 239.32 152 240 C151.34 240 150.68 240 150 240 C150 241.32 150 242.64 150 244 C149.34 244 148.68 244 148 244 C148 244.66 148 245.32 148 246 C147.34 246 146.68 246 146 246 C146 247.32 146 248.64 146 250 C145.34 250 144.68 250 144 250 C144 250.66 144 251.32 144 252 C143.34 252 142.68 252 142 252 C142 252.66 142 253.32 142 254 C141.34 254 140.68 254 140 254 C140 254.66 140 255.32 140 256 C139.34 256 138.68 256 138 256 C138 257.32 138 258.64 138 260 C137.34 260 136.68 260 136 260 C136 260.66 136 261.32 136 262 C135.34 262 134.68 262 134 262 C134 262.66 134 263.32 134 264 C133.34 264 132.68 264 132 264 C132 264.66 132 265.32 132 266 C131.34 266 130.68 266 130 266 C130 266.66 130 267.32 130 268 C129.34 268 128.68 268 128 268 C128 268.66 128 269.32 128 270 C127.34 270 126.68 270 126 270 C126 270.66 126 271.32 126 272 C124.68 272 123.36 272 122 272 C122 272.66 122 273.32 122 274 C121.34 274 120.68 274 120 274 C120 274.66 120 275.32 120 276 C119.34 276 118.68 276 118 276 C118 276.66 118 277.32 118 278 C117.34 278 116.68 278 116 278 C116 278.66 116 279.32 116 280 C114.68 280 113.36 280 112 280 C112 280.66 112 281.32 112 282 C111.34 282 110.68 282 110 282 C110 282.66 110 283.32 110 284 C109.34 284 108.68 284 108 284 C108 284.66 108 285.32 108 286 C106.68 286 105.36 286 104 286 C104 286.66 104 287.32 104 288 C102.68 288 101.36 288 100 288 C100 288.66 100 289.32 100 290 C99.34 290 98.68 290 98 290 C98 290.66 98 291.32 98 292 C96.68 292 95.36 292 94 292 C94 292.66 94 293.32 94 294 C92.68 294 91.36 294 90 294 C90 294.66 90 295.32 90 296 C88.68 296 87.36 296 86 296 C86 296.66 86 297.32 86 298 C84.68 298 83.36 298 82 298 C82 298.66 82 299.32 82 300 C80.02 300 78.04 300 76 300 C76 300.66 76 301.32 76 302 C74.02 302 72.04 302 70 302 C70 302.66 70 303.32 70 304 C68.68 304 67.36 304 66 304 C66 304.66 66 305.32 66 306 C63.36 306 60.72 306 58 306 C58 306.66 58 307.32 58 308 C54.04 308 50.08 308 46 308 C46 308.66 46 309.32 46 310 C42.04 310 38.08 310 34 310 C34 310.66 34 311.32 34 312 C26.08 312 18.16 312 10 312 C10 311.34 10 310.68 10 310 C4.72 310 -0.56 310 -6 310 C-6 309.34 -6 308.68 -6 308 C-8.64 308 -11.28 308 -14 308 C-14 307.34 -14 306.68 -14 306 C-16.64 306 -19.28 306 -22 306 C-22 305.34 -22 304.68 -22 304 C-24.64 304 -27.28 304 -30 304 C-30 303.34 -30 302.68 -30 302 C-31.98 302 -33.96 302 -36 302 C-36 301.34 -36 300.68 -36 300 C-37.32 300 -38.64 300 -40 300 C-40 299.34 -40 298.68 -40 298 C-41.32 298 -42.64 298 -44 298 C-44 297.34 -44 296.68 -44 296 C-45.32 296 -46.64 296 -48 296 C-48 295.34 -48 294.68 -48 294 C-49.32 294 -50.64 294 -52 294 C-52 293.34 -52 292.68 -52 292 C-53.32 292 -54.64 292 -56 292 C-56 291.34 -56 290.68 -56 290 C-57.32 290 -58.64 290 -60 290 C-60 289.34 -60 288.68 -60 288 C-60.66 288 -61.32 288 -62 288 C-62 287.34 -62 286.68 -62 286 C-63.32 286 -64.64 286 -66 286 C-66 285.34 -66 284.68 -66 284 C-66.66 284 -67.32 284 -68 284 C-68 283.34 -68 282.68 -68 282 C-69.32 282 -70.64 282 -72 282 C-72 281.34 -72 280.68 -72 280 C-72.66 280 -73.32 280 -74 280 C-74 279.34 -74 278.68 -74 278 C-74.66 278 -75.32 278 -76 278 C-76 277.34 -76 276.68 -76 276 C-76.66 276 -77.32 276 -78 276 C-78 275.34 -78 274.68 -78 274 C-79.32 274 -80.64 274 -82 274 C-82 273.34 -82 272.68 -82 272 C-82.66 272 -83.32 272 -84 272 C-84 271.34 -84 270.68 -84 270 C-84.66 270 -85.32 270 -86 270 C-86 269.34 -86 268.68 -86 268 C-86.66 268 -87.32 268 -88 268 C-88 267.34 -88 266.68 -88 266 C-88.66 266 -89.32 266 -90 266 C-90 265.34 -90 264.68 -90 264 C-90.66 264 -91.32 264 -92 264 C-92 263.34 -92 262.68 -92 262 C-92.66 262 -93.32 262 -94 262 C-94 261.34 -94 260.68 -94 260 C-94.66 260 -95.32 260 -96 260 C-96 259.34 -96 258.68 -96 258 C-96.66 258 -97.32 258 -98 258 C-98 256.68 -98 255.36 -98 254 C-98.66 254 -99.32 254 -100 254 C-100 253.34 -100 252.68 -100 252 C-100.66 252 -101.32 252 -102 252 C-102 251.34 -102 250.68 -102 250 C-102.66 250 -103.32 250 -104 250 C-104 249.34 -104 248.68 -104 248 C-104.66 248 -105.32 248 -106 248 C-106 246.68 -106 245.36 -106 244 C-106.66 244 -107.32 244 -108 244 C-108 243.34 -108 242.68 -108 242 C-108.66 242 -109.32 242 -110 242 C-110 240.68 -110 239.36 -110 238 C-110.66 238 -111.32 238 -112 238 C-112 237.34 -112 236.68 -112 236 C-112.66 236 -113.32 236 -114 236 C-114 234.68 -114 233.36 -114 232 C-114.66 232 -115.32 232 -116 232 C-116 230.68 -116 229.36 -116 228 C-116.66 228 -117.32 228 -118 228 C-118 226.68 -118 225.36 -118 224 C-118.66 224 -119.32 224 -120 224 C-120 222.68 -120 221.36 -120 220 C-120.66 220 -121.32 220 -122 220 C-122 218.02 -122 216.04 -122 214 C-122.66 214 -123.32 214 -124 214 C-124 212.68 -124 211.36 -124 210 C-124.66 210 -125.32 210 -126 210 C-126 208.02 -126 206.04 -126 204 C-126.66 204 -127.32 204 -128 204 C-128 201.36 -128 198.72 -128 196 C-128.66 196 -129.32 196 -130 196 C-130 193.36 -130 190.72 -130 188 C-130.66 188 -131.32 188 -132 188 C-132 184.7 -132 181.4 -132 178 C-132.66 178 -133.32 178 -134 178 C-134 164.14 -134 150.28 -134 136 C-133.34 136 -132.68 136 -132 136 C-132 130.72 -132 125.44 -132 120 C-131.34 120 -130.68 120 -130 120 C-130 118.68 -130 117.36 -130 116 C-129.34 116 -128.68 116 -128 116 C-128 112.7 -128 109.4 -128 106 C-127.34 106 -126.68 106 -126 106 C-126 104.02 -126 102.04 -126 100 C-125.34 100 -124.68 100 -124 100 C-124 98.68 -124 97.36 -124 96 C-123.34 96 -122.68 96 -122 96 C-122 94.68 -122 93.36 -122 92 C-121.34 92 -120.68 92 -120 92 C-120 90.68 -120 89.36 -120 88 C-119.34 88 -118.68 88 -118 88 C-118 86.68 -118 85.36 -118 84 C-117.34 84 -116.68 84 -116 84 C-116 82.68 -116 81.36 -116 80 C-115.34 80 -114.68 80 -114 80 C-114 78.68 -114 77.36 -114 76 C-113.34 76 -112.68 76 -112 76 C-112 75.34 -112 74.68 -112 74 C-111.34 74 -110.68 74 -110 74 C-110 72.68 -110 71.36 -110 70 C-109.34 70 -108.68 70 -108 70 C-108 69.34 -108 68.68 -108 68 C-107.34 68 -106.68 68 -106 68 C-106 66.68 -106 65.36 -106 64 C-105.34 64 -104.68 64 -104 64 C-104 63.34 -104 62.68 -104 62 C-103.34 62 -102.68 62 -102 62 C-102 61.34 -102 60.68 -102 60 C-101.34 60 -100.68 60 -100 60 C-100 58.68 -100 57.36 -100 56 C-99.34 56 -98.68 56 -98 56 C-98 55.34 -98 54.68 -98 54 C-97.34 54 -96.68 54 -96 54 C-96 53.34 -96 52.68 -96 52 C-95.34 52 -94.68 52 -94 52 C-94 51.34 -94 50.68 -94 50 C-93.34 50 -92.68 50 -92 50 C-92 49.34 -92 48.68 -92 48 C-91.34 48 -90.68 48 -90 48 C-90 47.34 -90 46.68 -90 46 C-89.34 46 -88.68 46 -88 46 C-88 45.34 -88 44.68 -88 44 C-87.34 44 -86.68 44 -86 44 C-86 43.34 -86 42.68 -86 42 C-85.34 42 -84.68 42 -84 42 C-84 41.34 -84 40.68 -84 40 C-83.34 40 -82.68 40 -82 40 C-82 39.34 -82 38.68 -82 38 C-81.34 38 -80.68 38 -80 38 C-80 37.34 -80 36.68 -80 36 C-79.34 36 -78.68 36 -78 36 C-78 35.34 -78 34.68 -78 34 C-76.68 34 -75.36 34 -74 34 C-74 33.34 -74 32.68 -74 32 C-73.34 32 -72.68 32 -72 32 C-72 31.34 -72 30.68 -72 30 C-71.34 30 -70.68 30 -70 30 C-70 29.34 -70 28.68 -70 28 C-68.68 28 -67.36 28 -66 28 C-66 27.34 -66 26.68 -66 26 C-65.34 26 -64.68 26 -64 26 C-64 25.34 -64 24.68 -64 24 C-62.68 24 -61.36 24 -60 24 C-60 23.34 -60 22.68 -60 22 C-59.34 22 -58.68 22 -58 22 C-58 21.34 -58 20.68 -58 20 C-56.68 20 -55.36 20 -54 20 C-54 19.34 -54 18.68 -54 18 C-52.68 18 -51.36 18 -50 18 C-50 17.34 -50 16.68 -50 16 C-48.68 16 -47.36 16 -46 16 C-46 15.34 -46 14.68 -46 14 C-44.68 14 -43.36 14 -42 14 C-42 13.34 -42 12.68 -42 12 C-40.68 12 -39.36 12 -38 12 C-38 11.34 -38 10.68 -38 10 C-36.02 10 -34.04 10 -32 10 C-32 9.34 -32 8.68 -32 8 C-30.02 8 -28.04 8 -26 8 C-26 7.34 -26 6.68 -26 6 C-24.02 6 -22.04 6 -20 6 C-20 5.34 -20 4.68 -20 4 C-17.36 4 -14.72 4 -12 4 C-12 3.34 -12 2.68 -12 2 C-8.04 2 -4.08 2 0 2 C0 1.34 0 0.68 0 0 Z " fill="currentColor" transform="translate(468,236)"/>
<path d="M0 0 C1.32 0 2.64 0 4 0 C4 26.4 4 52.8 4 80 C3.34 80 2.68 80 2 80 C2 80.66 2 81.32 2 82 C1.34 82 0.68 82 0 82 C0 82.66 0 83.32 0 84 C-1.98 84 -3.96 84 -6 84 C-6 84.66 -6 85.32 -6 86 C-7.32 86 -8.64 86 -10 86 C-10 86.66 -10 87.32 -10 88 C-11.98 88 -13.96 88 -16 88 C-16 88.66 -16 89.32 -16 90 C-17.32 90 -18.64 90 -20 90 C-20 90.66 -20 91.32 -20 92 C-21.32 92 -22.64 92 -24 92 C-24 92.66 -24 93.32 -24 94 C-25.32 94 -26.64 94 -28 94 C-28 94.66 -28 95.32 -28 96 C-29.32 96 -30.64 96 -32 96 C-32 96.66 -32 97.32 -32 98 C-33.32 98 -34.64 98 -36 98 C-36 98.66 -36 99.32 -36 100 C-37.32 100 -38.64 100 -40 100 C-40 100.66 -40 101.32 -40 102 C-40.66 102 -41.32 102 -42 102 C-42 102.66 -42 103.32 -42 104 C-43.32 104 -44.64 104 -46 104 C-46 104.66 -46 105.32 -46 106 C-46.66 106 -47.32 106 -48 106 C-48 106.66 -48 107.32 -48 108 C-49.32 108 -50.64 108 -52 108 C-52 108.66 -52 109.32 -52 110 C-52.66 110 -53.32 110 -54 110 C-54 110.66 -54 111.32 -54 112 C-54.66 112 -55.32 112 -56 112 C-56 112.66 -56 113.32 -56 114 C-57.32 114 -58.64 114 -60 114 C-60 114.66 -60 115.32 -60 116 C-62.64 116 -65.28 116 -68 116 C-68 116.66 -68 117.32 -68 118 C-71.96 118 -75.92 118 -80 118 C-80 118.66 -80 119.32 -80 120 C-83.96 120 -87.92 120 -92 120 C-92 120.66 -92 121.32 -92 122 C-97.28 122 -102.56 122 -108 122 C-108 122.66 -108 123.32 -108 124 C-115.92 124 -123.84 124 -132 124 C-132 124.66 -132 125.32 -132 126 C-157.08 126 -182.16 126 -208 126 C-208 125.34 -208 124.68 -208 124 C-213.28 124 -218.56 124 -224 124 C-224 123.34 -224 122.68 -224 122 C-230.6 122 -237.2 122 -244 122 C-244 121.34 -244 120.68 -244 120 C-247.96 120 -251.92 120 -256 120 C-256 119.34 -256 118.68 -256 118 C-259.3 118 -262.6 118 -266 118 C-266 117.34 -266 116.68 -266 116 C-267.98 116 -269.96 116 -272 116 C-272 115.34 -272 114.68 -272 114 C-275.3 114 -278.6 114 -282 114 C-282 113.34 -282 112.68 -282 112 C-283.32 112 -284.64 112 -286 112 C-286 111.34 -286 110.68 -286 110 C-288.64 110 -291.28 110 -294 110 C-294 109.34 -294 108.68 -294 108 C-295.98 108 -297.96 108 -300 108 C-300 107.34 -300 106.68 -300 106 C-301.98 106 -303.96 106 -306 106 C-306 105.34 -306 104.68 -306 104 C-307.32 104 -308.64 104 -310 104 C-310 103.34 -310 102.68 -310 102 C-311.32 102 -312.64 102 -314 102 C-314 101.34 -314 100.68 -314 100 C-314.66 100 -315.32 100 -316 100 C-316 99.34 -316 98.68 -316 98 C-317.32 98 -318.64 98 -320 98 C-320 97.34 -320 96.68 -320 96 C-320.66 96 -321.32 96 -322 96 C-322 95.34 -322 94.68 -322 94 C-323.32 94 -324.64 94 -326 94 C-326 93.34 -326 92.68 -326 92 C-326.66 92 -327.32 92 -328 92 C-328 91.34 -328 90.68 -328 90 C-328.66 90 -329.32 90 -330 90 C-330 89.34 -330 88.68 -330 88 C-330.66 88 -331.32 88 -332 88 C-332 86.68 -332 85.36 -332 84 C-332.66 84 -333.32 84 -334 84 C-334 56.94 -334 29.88 -334 2 C-332.68 2 -331.36 2 -330 2 C-330 2.66 -330 3.32 -330 4 C-328.68 4 -327.36 4 -326 4 C-326 4.66 -326 5.32 -326 6 C-325.34 6 -324.68 6 -324 6 C-324 6.66 -324 7.32 -324 8 C-322.68 8 -321.36 8 -320 8 C-320 8.66 -320 9.32 -320 10 C-318.68 10 -317.36 10 -316 10 C-316 10.66 -316 11.32 -316 12 C-314.02 12 -312.04 12 -310 12 C-310 12.66 -310 13.32 -310 14 C-308.68 14 -307.36 14 -306 14 C-306 14.66 -306 15.32 -306 16 C-304.02 16 -302.04 16 -300 16 C-300 16.66 -300 17.32 -300 18 C-298.02 18 -296.04 18 -294 18 C-294 18.66 -294 19.32 -294 20 C-292.02 20 -290.04 20 -288 20 C-288 20.66 -288 21.32 -288 22 C-285.36 22 -282.72 22 -280 22 C-280 22.66 -280 23.32 -280 24 C-277.36 24 -274.72 24 -272 24 C-272 24.66 -272 25.32 -272 26 C-268.04 26 -264.08 26 -260 26 C-260 26.66 -260 27.32 -260 28 C-254.72 28 -249.44 28 -244 28 C-244 28.66 -244 29.32 -244 30 C-241.36 30 -238.72 30 -236 30 C-236 30.66 -236 31.32 -236 32 C-230.72 32 -225.44 32 -220 32 C-220 32.66 -220 33.32 -220 34 C-184.36 34 -148.72 34 -112 34 C-112 33.34 -112 32.68 -112 32 C-106.72 32 -101.44 32 -96 32 C-96 31.34 -96 30.68 -96 30 C-90.72 30 -85.44 30 -80 30 C-80 29.34 -80 28.68 -80 28 C-78.68 28 -77.36 28 -76 28 C-76 27.34 -76 26.68 -76 26 C-72.04 26 -68.08 26 -64 26 C-64 25.34 -64 24.68 -64 24 C-60.04 24 -56.08 24 -52 24 C-52 23.34 -52 22.68 -52 22 C-50.68 22 -49.36 22 -48 22 C-48 21.34 -48 20.68 -48 20 C-45.36 20 -42.72 20 -40 20 C-40 19.34 -40 18.68 -40 18 C-38.02 18 -36.04 18 -34 18 C-34 17.34 -34 16.68 -34 16 C-32.02 16 -30.04 16 -28 16 C-28 15.34 -28 14.68 -28 14 C-26.02 14 -24.04 14 -22 14 C-22 13.34 -22 12.68 -22 12 C-20.02 12 -18.04 12 -16 12 C-16 11.34 -16 10.68 -16 10 C-14.68 10 -13.36 10 -12 10 C-12 9.34 -12 8.68 -12 8 C-10.68 8 -9.36 8 -8 8 C-8 7.34 -8 6.68 -8 6 C-6.68 6 -5.36 6 -4 6 C-4 5.34 -4 4.68 -4 4 C-3.34 4 -2.68 4 -2 4 C-2 3.34 -2 2.68 -2 2 C-1.34 2 -0.68 2 0 2 C0 1.34 0 0.68 0 0 Z " fill="currentColor" transform="translate(430,126)"/>
<path d="M0 0 C25.74 0 51.48 0 78 0 C78 0.66 78 1.32 78 2 C82.62 2 87.24 2 92 2 C92 2.66 92 3.32 92 4 C99.92 4 107.84 4 116 4 C116 4.66 116 5.32 116 6 C118.64 6 121.28 6 124 6 C124 6.66 124 7.32 124 8 C127.96 8 131.92 8 136 8 C136 8.66 136 9.32 136 10 C139.3 10 142.6 10 146 10 C146 10.66 146 11.32 146 12 C148.64 12 151.28 12 154 12 C154 12.66 154 13.32 154 14 C155.32 14 156.64 14 158 14 C158 14.66 158 15.32 158 16 C160.64 16 163.28 16 166 16 C166 16.66 166 17.32 166 18 C167.98 18 169.96 18 172 18 C172 18.66 172 19.32 172 20 C173.32 20 174.64 20 176 20 C176 20.66 176 21.32 176 22 C177.32 22 178.64 22 180 22 C180 22.66 180 23.32 180 24 C181.98 24 183.96 24 186 24 C186 24.66 186 25.32 186 26 C186.66 26 187.32 26 188 26 C188 26.66 188 27.32 188 28 C189.32 28 190.64 28 192 28 C192 28.66 192 29.32 192 30 C193.32 30 194.64 30 196 30 C196 30.66 196 31.32 196 32 C196.66 32 197.32 32 198 32 C198 32.66 198 33.32 198 34 C198.66 34 199.32 34 200 34 C200 34.66 200 35.32 200 36 C200.66 36 201.32 36 202 36 C202 36.66 202 37.32 202 38 C202.66 38 203.32 38 204 38 C204 39.32 204 40.64 204 42 C204.66 42 205.32 42 206 42 C206 42.66 206 43.32 206 44 C206.66 44 207.32 44 208 44 C208 47.3 208 50.6 208 54 C207.34 54 206.68 54 206 54 C206 55.32 206 56.64 206 58 C205.34 58 204.68 58 204 58 C204 58.66 204 59.32 204 60 C203.34 60 202.68 60 202 60 C202 61.32 202 62.64 202 64 C201.34 64 200.68 64 200 64 C200 64.66 200 65.32 200 66 C198.68 66 197.36 66 196 66 C196 66.66 196 67.32 196 68 C195.34 68 194.68 68 194 68 C194 68.66 194 69.32 194 70 C192.68 70 191.36 70 190 70 C190 70.66 190 71.32 190 72 C189.34 72 188.68 72 188 72 C188 72.66 188 73.32 188 74 C186.68 74 185.36 74 184 74 C184 74.66 184 75.32 184 76 C182.02 76 180.04 76 178 76 C178 76.66 178 77.32 178 78 C176.68 78 175.36 78 174 78 C174 78.66 174 79.32 174 80 C172.02 80 170.04 80 168 80 C168 80.66 168 81.32 168 82 C166.02 82 164.04 82 162 82 C162 82.66 162 83.32 162 84 C160.02 84 158.04 84 156 84 C156 84.66 156 85.32 156 86 C154.02 86 152.04 86 150 86 C150 86.66 150 87.32 150 88 C146.7 88 143.4 88 140 88 C140 88.66 140 89.32 140 90 C136.7 90 133.4 90 130 90 C130 90.66 130 91.32 130 92 C126.04 92 122.08 92 118 92 C118 92.66 118 93.32 118 94 C114.7 94 111.4 94 108 94 C108 94.66 108 95.32 108 96 C100.08 96 92.16 96 84 96 C84 96.66 84 97.32 84 98 C52.32 98 20.64 98 -12 98 C-12 97.34 -12 96.68 -12 96 C-17.28 96 -22.56 96 -28 96 C-28 95.34 -28 94.68 -28 94 C-31.96 94 -35.92 94 -40 94 C-40 93.34 -40 92.68 -40 92 C-45.94 92 -51.88 92 -58 92 C-58 91.34 -58 90.68 -58 90 C-60.64 90 -63.28 90 -66 90 C-66 89.34 -66 88.68 -66 88 C-68.64 88 -71.28 88 -74 88 C-74 87.34 -74 86.68 -74 86 C-76.64 86 -79.28 86 -82 86 C-82 85.34 -82 84.68 -82 84 C-83.98 84 -85.96 84 -88 84 C-88 83.34 -88 82.68 -88 82 C-89.98 82 -91.96 82 -94 82 C-94 81.34 -94 80.68 -94 80 C-95.32 80 -96.64 80 -98 80 C-98 79.34 -98 78.68 -98 78 C-99.98 78 -101.96 78 -104 78 C-104 77.34 -104 76.68 -104 76 C-105.32 76 -106.64 76 -108 76 C-108 75.34 -108 74.68 -108 74 C-109.32 74 -110.64 74 -112 74 C-112 73.34 -112 72.68 -112 72 C-112.66 72 -113.32 72 -114 72 C-114 71.34 -114 70.68 -114 70 C-115.32 70 -116.64 70 -118 70 C-118 69.34 -118 68.68 -118 68 C-118.66 68 -119.32 68 -120 68 C-120 67.34 -120 66.68 -120 66 C-120.66 66 -121.32 66 -122 66 C-122 65.34 -122 64.68 -122 64 C-122.66 64 -123.32 64 -124 64 C-124 63.34 -124 62.68 -124 62 C-124.66 62 -125.32 62 -126 62 C-126 61.34 -126 60.68 -126 60 C-126.66 60 -127.32 60 -128 60 C-128 58.68 -128 57.36 -128 56 C-128.66 56 -129.32 56 -130 56 C-130 51.38 -130 46.76 -130 42 C-129.34 42 -128.68 42 -128 42 C-128 40.68 -128 39.36 -128 38 C-127.34 38 -126.68 38 -126 38 C-126 37.34 -126 36.68 -126 36 C-125.34 36 -124.68 36 -124 36 C-124 35.34 -124 34.68 -124 34 C-123.34 34 -122.68 34 -122 34 C-122 33.34 -122 32.68 -122 32 C-120.68 32 -119.36 32 -118 32 C-118 31.34 -118 30.68 -118 30 C-117.34 30 -116.68 30 -116 30 C-116 29.34 -116 28.68 -116 28 C-114.68 28 -113.36 28 -112 28 C-112 27.34 -112 26.68 -112 26 C-110.68 26 -109.36 26 -108 26 C-108 25.34 -108 24.68 -108 24 C-106.68 24 -105.36 24 -104 24 C-104 23.34 -104 22.68 -104 22 C-102.68 22 -101.36 22 -100 22 C-100 21.34 -100 20.68 -100 20 C-98.68 20 -97.36 20 -96 20 C-96 19.34 -96 18.68 -96 18 C-94.02 18 -92.04 18 -90 18 C-90 17.34 -90 16.68 -90 16 C-88.02 16 -86.04 16 -84 16 C-84 15.34 -84 14.68 -84 14 C-80.7 14 -77.4 14 -74 14 C-74 13.34 -74 12.68 -74 12 C-72.02 12 -70.04 12 -68 12 C-68 11.34 -68 10.68 -68 10 C-66.02 10 -64.04 10 -62 10 C-62 9.34 -62 8.68 -62 8 C-58.7 8 -55.4 8 -52 8 C-52 7.34 -52 6.68 -52 6 C-46.72 6 -41.44 6 -36 6 C-36 5.34 -36 4.68 -36 4 C-32.04 4 -28.08 4 -24 4 C-24 3.34 -24 2.68 -24 2 C-16.08 2 -8.16 2 0 2 C0 1.34 0 0.68 0 0 Z " fill="currentColor" transform="translate(226,42)"/>
<path d="M0 0 C1.98 0 3.96 0 6 0 C6 0.66 6 1.32 6 2 C6.66 2 7.32 2 8 2 C8 2.66 8 3.32 8 4 C8.66 4 9.32 4 10 4 C10 4.66 10 5.32 10 6 C11.32 6 12.64 6 14 6 C14 6.66 14 7.32 14 8 C14.66 8 15.32 8 16 8 C16 8.66 16 9.32 16 10 C16.66 10 17.32 10 18 10 C18 10.66 18 11.32 18 12 C18.66 12 19.32 12 20 12 C20 12.66 20 13.32 20 14 C20.66 14 21.32 14 22 14 C22 14.66 22 15.32 22 16 C22.66 16 23.32 16 24 16 C24 16.66 24 17.32 24 18 C24.66 18 25.32 18 26 18 C26 18.66 26 19.32 26 20 C26.66 20 27.32 20 28 20 C28 20.66 28 21.32 28 22 C28.66 22 29.32 22 30 22 C30 22.66 30 23.32 30 24 C30.66 24 31.32 24 32 24 C32 24.66 32 25.32 32 26 C32.66 26 33.32 26 34 26 C34 26.66 34 27.32 34 28 C34.66 28 35.32 28 36 28 C36 28.66 36 29.32 36 30 C37.32 30 38.64 30 40 30 C40 30.66 40 31.32 40 32 C40.66 32 41.32 32 42 32 C42 32.66 42 33.32 42 34 C42.66 34 43.32 34 44 34 C44 34.66 44 35.32 44 36 C44.66 36 45.32 36 46 36 C46 36.66 46 37.32 46 38 C46.66 38 47.32 38 48 38 C48 38.66 48 39.32 48 40 C48.66 40 49.32 40 50 40 C50 40.66 50 41.32 50 42 C50.66 42 51.32 42 52 42 C52 42.66 52 43.32 52 44 C52.66 44 53.32 44 54 44 C54 44.66 54 45.32 54 46 C54.66 46 55.32 46 56 46 C56 46.66 56 47.32 56 48 C56.66 48 57.32 48 58 48 C58 48.66 58 49.32 58 50 C58.66 50 59.32 50 60 50 C60 50.66 60 51.32 60 52 C60.66 52 61.32 52 62 52 C62 52.66 62 53.32 62 54 C62.66 54 63.32 54 64 54 C64 54.66 64 55.32 64 56 C64.66 56 65.32 56 66 56 C66 56.66 66 57.32 66 58 C66.66 58 67.32 58 68 58 C68 58.66 68 59.32 68 60 C69.32 60 70.64 60 72 60 C72 60.66 72 61.32 72 62 C72.66 62 73.32 62 74 62 C74 62.66 74 63.32 74 64 C74.66 64 75.32 64 76 64 C76 64.66 76 65.32 76 66 C76.66 66 77.32 66 78 66 C78 66.66 78 67.32 78 68 C78.66 68 79.32 68 80 68 C80 68.66 80 69.32 80 70 C80.66 70 81.32 70 82 70 C82 70.66 82 71.32 82 72 C82.66 72 83.32 72 84 72 C84 72.66 84 73.32 84 74 C84.66 74 85.32 74 86 74 C86 74.66 86 75.32 86 76 C86.66 76 87.32 76 88 76 C88 78.64 88 81.28 88 84 C87.34 84 86.68 84 86 84 C86 84.66 86 85.32 86 86 C75.44 86 64.88 86 54 86 C54 86.66 54 87.32 54 88 C53.34 88 52.68 88 52 88 C52 132.22 52 176.44 52 222 C51.34 222 50.68 222 50 222 C50 222.66 50 223.32 50 224 C18.98 224 -12.04 224 -44 224 C-44 223.34 -44 222.68 -44 222 C-44.66 222 -45.32 222 -46 222 C-46 177.78 -46 133.56 -46 88 C-46.66 88 -47.32 88 -48 88 C-48 87.34 -48 86.68 -48 86 C-58.56 86 -69.12 86 -80 86 C-80 85.34 -80 84.68 -80 84 C-80.66 84 -81.32 84 -82 84 C-82 81.36 -82 78.72 -82 76 C-81.34 76 -80.68 76 -80 76 C-80 75.34 -80 74.68 -80 74 C-79.34 74 -78.68 74 -78 74 C-78 73.34 -78 72.68 -78 72 C-77.34 72 -76.68 72 -76 72 C-76 71.34 -76 70.68 -76 70 C-75.34 70 -74.68 70 -74 70 C-74 69.34 -74 68.68 -74 68 C-73.34 68 -72.68 68 -72 68 C-72 67.34 -72 66.68 -72 66 C-71.34 66 -70.68 66 -70 66 C-70 65.34 -70 64.68 -70 64 C-69.34 64 -68.68 64 -68 64 C-68 63.34 -68 62.68 -68 62 C-67.34 62 -66.68 62 -66 62 C-66 61.34 -66 60.68 -66 60 C-65.34 60 -64.68 60 -64 60 C-64 59.34 -64 58.68 -64 58 C-63.34 58 -62.68 58 -62 58 C-62 57.34 -62 56.68 -62 56 C-61.34 56 -60.68 56 -60 56 C-60 55.34 -60 54.68 -60 54 C-59.34 54 -58.68 54 -58 54 C-58 53.34 -58 52.68 -58 52 C-56.68 52 -55.36 52 -54 52 C-54 51.34 -54 50.68 -54 50 C-53.34 50 -52.68 50 -52 50 C-52 49.34 -52 48.68 -52 48 C-51.34 48 -50.68 48 -50 48 C-50 47.34 -50 46.68 -50 46 C-49.34 46 -48.68 46 -48 46 C-48 45.34 -48 44.68 -48 44 C-47.34 44 -46.68 44 -46 44 C-46 43.34 -46 42.68 -46 42 C-45.34 42 -44.68 42 -44 42 C-44 41.34 -44 40.68 -44 40 C-43.34 40 -42.68 40 -42 40 C-42 39.34 -42 38.68 -42 38 C-41.34 38 -40.68 38 -40 38 C-40 37.34 -40 36.68 -40 36 C-39.34 36 -38.68 36 -38 36 C-38 35.34 -38 34.68 -38 34 C-37.34 34 -36.68 34 -36 34 C-36 33.34 -36 32.68 -36 32 C-35.34 32 -34.68 32 -34 32 C-34 31.34 -34 30.68 -34 30 C-33.34 30 -32.68 30 -32 30 C-32 29.34 -32 28.68 -32 28 C-31.34 28 -30.68 28 -30 28 C-30 27.34 -30 26.68 -30 26 C-28.68 26 -27.36 26 -26 26 C-26 25.34 -26 24.68 -26 24 C-25.34 24 -24.68 24 -24 24 C-24 23.34 -24 22.68 -24 22 C-23.34 22 -22.68 22 -22 22 C-22 21.34 -22 20.68 -22 20 C-21.34 20 -20.68 20 -20 20 C-20 19.34 -20 18.68 -20 18 C-19.34 18 -18.68 18 -18 18 C-18 17.34 -18 16.68 -18 16 C-17.34 16 -16.68 16 -16 16 C-16 15.34 -16 14.68 -16 14 C-15.34 14 -14.68 14 -14 14 C-14 13.34 -14 12.68 -14 12 C-13.34 12 -12.68 12 -12 12 C-12 11.34 -12 10.68 -12 10 C-11.34 10 -10.68 10 -10 10 C-10 9.34 -10 8.68 -10 8 C-9.34 8 -8.68 8 -8 8 C-8 7.34 -8 6.68 -8 6 C-7.34 6 -6.68 6 -6 6 C-6 5.34 -6 4.68 -6 4 C-4.68 4 -3.36 4 -2 4 C-2 3.34 -2 2.68 -2 2 C-1.34 2 -0.68 2 0 2 C0 1.34 0 0.68 0 0 Z " fill="currentColor" transform="translate(486,280)"/>
<path d="M0 0 C14.52 0 29.04 0 44 0 C44 0.66 44 1.32 44 2 C47.96 2 51.92 2 56 2 C56 2.66 56 3.32 56 4 C59.96 4 63.92 4 68 4 C68 4.66 68 5.32 68 6 C69.32 6 70.64 6 72 6 C72 6.66 72 7.32 72 8 C73.98 8 75.96 8 78 8 C78 8.66 78 9.32 78 10 C79.98 10 81.96 10 84 10 C84 10.66 84 11.32 84 12 C85.98 12 87.96 12 90 12 C90 12.66 90 13.32 90 14 C91.32 14 92.64 14 94 14 C94 14.66 94 15.32 94 16 C95.32 16 96.64 16 98 16 C98 16.66 98 17.32 98 18 C99.32 18 100.64 18 102 18 C102 18.66 102 19.32 102 20 C103.32 20 104.64 20 106 20 C106 20.66 106 21.32 106 22 C107.32 22 108.64 22 110 22 C110 22.66 110 23.32 110 24 C111.32 24 112.64 24 114 24 C114 24.66 114 25.32 114 26 C114.66 26 115.32 26 116 26 C116 26.66 116 27.32 116 28 C117.32 28 118.64 28 120 28 C120 28.66 120 29.32 120 30 C120.66 30 121.32 30 122 30 C122 30.66 122 31.32 122 32 C123.32 32 124.64 32 126 32 C126 32.66 126 33.32 126 34 C126.66 34 127.32 34 128 34 C128 34.66 128 35.32 128 36 C129.32 36 130.64 36 132 36 C132 36.66 132 37.32 132 38 C132.66 38 133.32 38 134 38 C134 38.66 134 39.32 134 40 C134.66 40 135.32 40 136 40 C136 40.66 136 41.32 136 42 C136.66 42 137.32 42 138 42 C138 42.66 138 43.32 138 44 C138.66 44 139.32 44 140 44 C140 44.66 140 45.32 140 46 C140.66 46 141.32 46 142 46 C142 46.66 142 47.32 142 48 C142.66 48 143.32 48 144 48 C144 48.66 144 49.32 144 50 C144.66 50 145.32 50 146 50 C146 50.66 146 51.32 146 52 C146.66 52 147.32 52 148 52 C148 52.66 148 53.32 148 54 C148.66 54 149.32 54 150 54 C150 54.66 150 55.32 150 56 C150.66 56 151.32 56 152 56 C152 56.66 152 57.32 152 58 C152.66 58 153.32 58 154 58 C154 58.66 154 59.32 154 60 C154.66 60 155.32 60 156 60 C156 60.66 156 61.32 156 62 C156.66 62 157.32 62 158 62 C158 62.66 158 63.32 158 64 C158.66 64 159.32 64 160 64 C160 64.66 160 65.32 160 66 C160.66 66 161.32 66 162 66 C162 67.32 162 68.64 162 70 C162.66 70 163.32 70 164 70 C164 70.66 164 71.32 164 72 C164.66 72 165.32 72 166 72 C166 72.66 166 73.32 166 74 C166.66 74 167.32 74 168 74 C168 75.32 168 76.64 168 78 C168.66 78 169.32 78 170 78 C170 78.66 170 79.32 170 80 C170.66 80 171.32 80 172 80 C172 81.32 172 82.64 172 84 C172.66 84 173.32 84 174 84 C174 85.32 174 86.64 174 88 C174.66 88 175.32 88 176 88 C176 88.66 176 89.32 176 90 C176.66 90 177.32 90 178 90 C178 91.32 178 92.64 178 94 C178.66 94 179.32 94 180 94 C180 95.32 180 96.64 180 98 C180.66 98 181.32 98 182 98 C182 99.32 182 100.64 182 102 C182.66 102 183.32 102 184 102 C184 103.32 184 104.64 184 106 C184.66 106 185.32 106 186 106 C186 107.98 186 109.96 186 112 C186.66 112 187.32 112 188 112 C188 113.32 188 114.64 188 116 C188.66 116 189.32 116 190 116 C190 119.3 190 122.6 190 126 C190.66 126 191.32 126 192 126 C192 128.64 192 131.28 192 134 C192.66 134 193.32 134 194 134 C194 135.32 194 136.64 194 138 C194.66 138 195.32 138 196 138 C196 141.96 196 145.92 196 150 C196.66 150 197.32 150 198 150 C198 166.5 198 183 198 200 C197.34 200 196.68 200 196 200 C196 203.96 196 207.92 196 212 C195.34 212 194.68 212 194 212 C194 213.98 194 215.96 194 218 C193.34 218 192.68 218 192 218 C192 220.64 192 223.28 192 226 C191.34 226 190.68 226 190 226 C190 227.98 190 229.96 190 232 C189.34 232 188.68 232 188 232 C188 233.98 188 235.96 188 238 C187.34 238 186.68 238 186 238 C186 239.98 186 241.96 186 244 C185.34 244 184.68 244 184 244 C184 245.32 184 246.64 184 248 C183.34 248 182.68 248 182 248 C182 249.32 182 250.64 182 252 C181.34 252 180.68 252 180 252 C180 253.32 180 254.64 180 256 C179.34 256 178.68 256 178 256 C178 257.32 178 258.64 178 260 C177.34 260 176.68 260 176 260 C176 261.32 176 262.64 176 264 C175.34 264 174.68 264 174 264 C174 265.32 174 266.64 174 268 C173.34 268 172.68 268 172 268 C172 268.66 172 269.32 172 270 C171.34 270 170.68 270 170 270 C170 271.32 170 272.64 170 274 C169.34 274 168.68 274 168 274 C168 274.66 168 275.32 168 276 C167.34 276 166.68 276 166 276 C166 277.32 166 278.64 166 280 C165.34 280 164.68 280 164 280 C164 280.66 164 281.32 164 282 C163.34 282 162.68 282 162 282 C162 282.66 162 283.32 162 284 C161.34 284 160.68 284 160 284 C160 285.32 160 286.64 160 288 C159.34 288 158.68 288 158 288 C158 288.66 158 289.32 158 290 C157.34 290 156.68 290 156 290 C156 290.66 156 291.32 156 292 C155.34 292 154.68 292 154 292 C154 292.66 154 293.32 154 294 C153.34 294 152.68 294 152 294 C152 294.66 152 295.32 152 296 C151.34 296 150.68 296 150 296 C150 296.66 150 297.32 150 298 C149.34 298 148.68 298 148 298 C148 298.66 148 299.32 148 300 C147.34 300 146.68 300 146 300 C146 300.66 146 301.32 146 302 C145.34 302 144.68 302 144 302 C144 302.66 144 303.32 144 304 C143.34 304 142.68 304 142 304 C142 304.66 142 305.32 142 306 C141.34 306 140.68 306 140 306 C140 306.66 140 307.32 140 308 C139.34 308 138.68 308 138 308 C138 308.66 138 309.32 138 310 C137.34 310 136.68 310 136 310 C136 310.66 136 311.32 136 312 C134.68 312 133.36 312 132 312 C132 312.66 132 313.32 132 314 C131.34 314 130.68 314 130 314 C130 314.66 130 315.32 130 316 C129.34 316 128.68 316 128 316 C128 316.66 128 317.32 128 318 C126.68 318 125.36 318 124 318 C124 318.66 124 319.32 124 320 C123.34 320 122.68 320 122 320 C122 320.66 122 321.32 122 322 C120.68 322 119.36 322 118 322 C118 322.66 118 323.32 118 324 C117.34 324 116.68 324 116 324 C116 324.66 116 325.32 116 326 C114.68 326 113.36 326 112 326 C112 326.66 112 327.32 112 328 C111.34 328 110.68 328 110 328 C110 328.66 110 329.32 110 330 C108.68 330 107.36 330 106 330 C106 330.66 106 331.32 106 332 C104.68 332 103.36 332 102 332 C102 332.66 102 333.32 102 334 C100.68 334 99.36 334 98 334 C98 334.66 98 335.32 98 336 C96.02 336 94.04 336 92 336 C92 336.66 92 337.32 92 338 C90.02 338 88.04 338 86 338 C86 338.66 86 339.32 86 340 C84.68 340 83.36 340 82 340 C82 340.66 82 341.32 82 342 C80.02 342 78.04 342 76 342 C76 342.66 76 343.32 76 344 C74.68 344 73.36 344 72 344 C72 344.66 72 345.32 72 346 C69.36 346 66.72 346 64 346 C64 346.66 64 347.32 64 348 C60.04 348 56.08 348 52 348 C52 348.66 52 349.32 52 350 C48.04 350 44.08 350 40 350 C40 350.66 40 351.32 40 352 C29.44 352 18.88 352 8 352 C8 351.34 8 350.68 8 350 C2.72 350 -2.56 350 -8 350 C-8 349.34 -8 348.68 -8 348 C-10.64 348 -13.28 348 -16 348 C-16 347.34 -16 346.68 -16 346 C-19.3 346 -22.6 346 -26 346 C-26 345.34 -26 344.68 -26 344 C-27.98 344 -29.96 344 -32 344 C-32 343.34 -32 342.68 -32 342 C-33.98 342 -35.96 342 -38 342 C-38 341.34 -38 340.68 -38 340 C-39.98 340 -41.96 340 -44 340 C-44 339.34 -44 338.68 -44 338 C-45.32 338 -46.64 338 -48 338 C-48 337.34 -48 336.68 -48 336 C-49.32 336 -50.64 336 -52 336 C-52 335.34 -52 334.68 -52 334 C-53.32 334 -54.64 334 -56 334 C-56 333.34 -56 332.68 -56 332 C-57.32 332 -58.64 332 -60 332 C-60 331.34 -60 330.68 -60 330 C-61.32 330 -62.64 330 -64 330 C-64 329.34 -64 328.68 -64 328 C-64.66 328 -65.32 328 -66 328 C-66 327.34 -66 326.68 -66 326 C-67.32 326 -68.64 326 -70 326 C-70 325.34 -70 324.68 -70 324 C-71.32 324 -72.64 324 -74 324 C-74 323.34 -74 322.68 -74 322 C-74.66 322 -75.32 322 -76 322 C-76 321.34 -76 320.68 -76 320 C-77.32 320 -78.64 320 -80 320 C-80 319.34 -80 318.68 -80 318 C-80.66 318 -81.32 318 -82 318 C-82 317.34 -82 316.68 -82 316 C-82.66 316 -83.32 316 -84 316 C-84 315.34 -84 314.68 -84 314 C-85.32 314 -86.64 314 -88 314 C-88 313.34 -88 312.68 -88 312 C-88.66 312 -89.32 312 -90 312 C-90 311.34 -90 310.68 -90 310 C-90.66 310 -91.32 310 -92 310 C-92 309.34 -92 308.68 -92 308 C-92.66 308 -93.32 308 -94 308 C-94 307.34 -94 306.68 -94 306 C-94.66 306 -95.32 306 -96 306 C-96 305.34 -96 304.68 -96 304 C-96.66 304 -97.32 304 -98 304 C-98 303.34 -98 302.68 -98 302 C-98.66 302 -99.32 302 -100 302 C-100 301.34 -100 300.68 -100 300 C-100.66 300 -101.32 300 -102 300 C-102 299.34 -102 298.68 -102 298 C-102.66 298 -103.32 298 -104 298 C-104 297.34 -104 296.68 -104 296 C-104.66 296 -105.32 296 -106 296 C-106 295.34 -106 294.68 -106 294 C-106.66 294 -107.32 294 -108 294 C-108 293.34 -108 292.68 -108 292 C-108.66 292 -109.32 292 -110 292 C-110 291.34 -110 290.68 -110 290 C-110.66 290 -111.32 290 -112 290 C-112 289.34 -112 288.68 -112 288 C-112.66 288 -113.32 288 -114 288 C-114 286.68 -114 285.36 -114 284 C-114.66 284 -115.32 284 -116 284 C-116 283.34 -116 282.68 -116 282 C-116.66 282 -117.32 282 -118 282 C-118 281.34 -118 280.68 -118 280 C-118.66 280 -119.32 280 -120 280 C-120 279.34 -120 278.68 -120 278 C-120.66 278 -121.32 278 -122 278 C-122 276.68 -122 275.36 -122 274 C-122.66 274 -123.32 274 -124 274 C-124 273.34 -124 272.68 -124 272 C-124.66 272 -125.32 272 -126 272 C-126 270.68 -126 269.36 -126 268 C-126.66 268 -127.32 268 -128 268 C-128 266.68 -128 265.36 -128 264 C-128.66 264 -129.32 264 -130 264 C-130 262.68 -130 261.36 -130 260 C-130.66 260 -131.32 260 -132 260 C-132 259.34 -132 258.68 -132 258 C-132.66 258 -133.32 258 -134 258 C-134 256.68 -134 255.36 -134 254 C-134.66 254 -135.32 254 -136 254 C-136 252.02 -136 250.04 -136 248 C-136.66 248 -137.32 248 -138 248 C-138 246.68 -138 245.36 -138 244 C-138.66 244 -139.32 244 -140 244 C-140 242.68 -140 241.36 -140 240 C-140.66 240 -141.32 240 -142 240 C-142 238.02 -142 236.04 -142 234 C-142.66 234 -143.32 234 -144 234 C-144 232.02 -144 230.04 -144 228 C-144.66 228 -145.32 228 -146 228 C-146 225.36 -146 222.72 -146 220 C-146.66 220 -147.32 220 -148 220 C-148 218.02 -148 216.04 -148 214 C-148.66 214 -149.32 214 -150 214 C-150 209.38 -150 204.76 -150 200 C-150.66 200 -151.32 200 -152 200 C-152 181.52 -152 163.04 -152 144 C-151.34 144 -150.68 144 -150 144 C-150 141.36 -150 138.72 -150 136 C-149.34 136 -148.68 136 -148 136 C-148 133.36 -148 130.72 -148 128 C-147.34 128 -146.68 128 -146 128 C-146 126.02 -146 124.04 -146 122 C-145.34 122 -144.68 122 -144 122 C-144 120.02 -144 118.04 -144 116 C-143.34 116 -142.68 116 -142 116 C-142 114.02 -142 112.04 -142 110 C-141.34 110 -140.68 110 -140 110 C-140 108.68 -140 107.36 -140 106 C-139.34 106 -138.68 106 -138 106 C-138 104.68 -138 103.36 -138 102 C-137.34 102 -136.68 102 -136 102 C-136 100.68 -136 99.36 -136 98 C-135.34 98 -134.68 98 -134 98 C-134 96.68 -134 95.36 -134 94 C-133.34 94 -132.68 94 -132 94 C-132 92.68 -132 91.36 -132 90 C-131.34 90 -130.68 90 -130 90 C-130 88.68 -130 87.36 -130 86 C-129.34 86 -128.68 86 -128 86 C-128 85.34 -128 84.68 -128 84 C-127.34 84 -126.68 84 -126 84 C-126 82.68 -126 81.36 -126 80 C-125.34 80 -124.68 80 -124 80 C-124 79.34 -124 78.68 -124 78 C-123.34 78 -122.68 78 -122 78 C-122 76.68 -122 75.36 -122 74 C-121.34 74 -120.68 74 -120 74 C-120 73.34 -120 72.68 -120 72 C-119.34 72 -118.68 72 -118 72 C-118 71.34 -118 70.68 -118 70 C-117.34 70 -116.68 70 -116 70 C-116 68.68 -116 67.36 -116 66 C-115.34 66 -114.68 66 -114 66 C-114 65.34 -114 64.68 -114 64 C-113.34 64 -112.68 64 -112 64 C-112 63.34 -112 62.68 -112 62 C-111.34 62 -110.68 62 -110 62 C-110 60.68 -110 59.36 -110 58 C-109.34 58 -108.68 58 -108 58 C-108 57.34 -108 56.68 -108 56 C-107.34 56 -106.68 56 -106 56 C-106 55.34 -106 54.68 -106 54 C-105.34 54 -104.68 54 -104 54 C-104 53.34 -104 52.68 -104 52 C-103.34 52 -102.68 52 -102 52 C-102 51.34 -102 50.68 -102 50 C-101.34 50 -100.68 50 -100 50 C-100 49.34 -100 48.68 -100 48 C-99.34 48 -98.68 48 -98 48 C-98 47.34 -98 46.68 -98 46 C-96.68 46 -95.36 46 -94 46 C-94 45.34 -94 44.68 -94 44 C-93.34 44 -92.68 44 -92 44 C-92 43.34 -92 42.68 -92 42 C-91.34 42 -90.68 42 -90 42 C-90 41.34 -90 40.68 -90 40 C-89.34 40 -88.68 40 -88 40 C-88 39.34 -88 38.68 -88 38 C-87.34 38 -86.68 38 -86 38 C-86 37.34 -86 36.68 -86 36 C-84.68 36 -83.36 36 -82 36 C-82 35.34 -82 34.68 -82 34 C-81.34 34 -80.68 34 -80 34 C-80 33.34 -80 32.68 -80 32 C-79.34 32 -78.68 32 -78 32 C-78 31.34 -78 30.68 -78 30 C-76.68 30 -75.36 30 -74 30 C-74 29.34 -74 28.68 -74 28 C-73.34 28 -72.68 28 -72 28 C-72 27.34 -72 26.68 -72 26 C-70.68 26 -69.36 26 -68 26 C-68 25.34 -68 24.68 -68 24 C-66.68 24 -65.36 24 -64 24 C-64 23.34 -64 22.68 -64 22 C-63.34 22 -62.68 22 -62 22 C-62 21.34 -62 20.68 -62 20 C-60.68 20 -59.36 20 -58 20 C-58 19.34 -58 18.68 -58 18 C-56.68 18 -55.36 18 -54 18 C-54 17.34 -54 16.68 -54 16 C-52.68 16 -51.36 16 -50 16 C-50 15.34 -50 14.68 -50 14 C-48.02 14 -46.04 14 -44 14 C-44 13.34 -44 12.68 -44 12 C-42.68 12 -41.36 12 -40 12 C-40 11.34 -40 10.68 -40 10 C-38.02 10 -36.04 10 -34 10 C-34 9.34 -34 8.68 -34 8 C-32.02 8 -30.04 8 -28 8 C-28 7.34 -28 6.68 -28 6 C-25.36 6 -22.72 6 -20 6 C-20 5.34 -20 4.68 -20 4 C-18.02 4 -16.04 4 -14 4 C-14 3.34 -14 2.68 -14 2 C-9.38 2 -4.76 2 0 2 C0 1.34 0 0.68 0 0 Z M2 20 C2 20.66 2 21.32 2 22 C-1.96 22 -5.92 22 -10 22 C-10 22.66 -10 23.32 -10 24 C-12.64 24 -15.28 24 -18 24 C-18 24.66 -18 25.32 -18 26 C-19.98 26 -21.96 26 -24 26 C-24 26.66 -24 27.32 -24 28 C-25.98 28 -27.96 28 -30 28 C-30 28.66 -30 29.32 -30 30 C-31.98 30 -33.96 30 -36 30 C-36 30.66 -36 31.32 -36 32 C-37.32 32 -38.64 32 -40 32 C-40 32.66 -40 33.32 -40 34 C-41.32 34 -42.64 34 -44 34 C-44 34.66 -44 35.32 -44 36 C-45.32 36 -46.64 36 -48 36 C-48 36.66 -48 37.32 -48 38 C-49.32 38 -50.64 38 -52 38 C-52 38.66 -52 39.32 -52 40 C-53.32 40 -54.64 40 -56 40 C-56 40.66 -56 41.32 -56 42 C-56.66 42 -57.32 42 -58 42 C-58 42.66 -58 43.32 -58 44 C-59.32 44 -60.64 44 -62 44 C-62 44.66 -62 45.32 -62 46 C-62.66 46 -63.32 46 -64 46 C-64 46.66 -64 47.32 -64 48 C-65.32 48 -66.64 48 -68 48 C-68 48.66 -68 49.32 -68 50 C-68.66 50 -69.32 50 -70 50 C-70 50.66 -70 51.32 -70 52 C-70.66 52 -71.32 52 -72 52 C-72 52.66 -72 53.32 -72 54 C-73.32 54 -74.64 54 -76 54 C-76 54.66 -76 55.32 -76 56 C-76.66 56 -77.32 56 -78 56 C-78 56.66 -78 57.32 -78 58 C-78.66 58 -79.32 58 -80 58 C-80 58.66 -80 59.32 -80 60 C-80.66 60 -81.32 60 -82 60 C-82 60.66 -82 61.32 -82 62 C-82.66 62 -83.32 62 -84 62 C-84 62.66 -84 63.32 -84 64 C-84.66 64 -85.32 64 -86 64 C-86 64.66 -86 65.32 -86 66 C-86.66 66 -87.32 66 -88 66 C-88 66.66 -88 67.32 -88 68 C-88.66 68 -89.32 68 -90 68 C-90 68.66 -90 69.32 -90 70 C-90.66 70 -91.32 70 -92 70 C-92 70.66 -92 71.32 -92 72 C-92.66 72 -93.32 72 -94 72 C-94 72.66 -94 73.32 -94 74 C-94.66 74 -95.32 74 -96 74 C-96 74.66 -96 75.32 -96 76 C-96.66 76 -97.32 76 -98 76 C-98 77.32 -98 78.64 -98 80 C-98.66 80 -99.32 80 -100 80 C-100 80.66 -100 81.32 -100 82 C-100.66 82 -101.32 82 -102 82 C-102 82.66 -102 83.32 -102 84 C-102.66 84 -103.32 84 -104 84 C-104 85.32 -104 86.64 -104 88 C-104.66 88 -105.32 88 -106 88 C-106 88.66 -106 89.32 -106 90 C-106.66 90 -107.32 90 -108 90 C-108 91.32 -108 92.64 -108 94 C-108.66 94 -109.32 94 -110 94 C-110 94.66 -110 95.32 -110 96 C-110.66 96 -111.32 96 -112 96 C-112 97.32 -112 98.64 -112 100 C-112.66 100 -113.32 100 -114 100 C-114 101.32 -114 102.64 -114 104 C-114.66 104 -115.32 104 -116 104 C-116 105.32 -116 106.64 -116 108 C-116.66 108 -117.32 108 -118 108 C-118 109.32 -118 110.64 -118 112 C-118.66 112 -119.32 112 -120 112 C-120 113.32 -120 114.64 -120 116 C-120.66 116 -121.32 116 -122 116 C-122 117.32 -122 118.64 -122 120 C-122.66 120 -123.32 120 -124 120 C-124 121.98 -124 123.96 -124 126 C-124.66 126 -125.32 126 -126 126 C-126 129.3 -126 132.6 -126 136 C-126.66 136 -127.32 136 -128 136 C-128 137.32 -128 138.64 -128 140 C-128.66 140 -129.32 140 -130 140 C-130 145.28 -130 150.56 -130 156 C-130.66 156 -131.32 156 -132 156 C-132 169.86 -132 183.72 -132 198 C-131.34 198 -130.68 198 -130 198 C-130 201.3 -130 204.6 -130 208 C-129.34 208 -128.68 208 -128 208 C-128 210.64 -128 213.28 -128 216 C-127.34 216 -126.68 216 -126 216 C-126 218.64 -126 221.28 -126 224 C-125.34 224 -124.68 224 -124 224 C-124 225.98 -124 227.96 -124 230 C-123.34 230 -122.68 230 -122 230 C-122 231.32 -122 232.64 -122 234 C-121.34 234 -120.68 234 -120 234 C-120 235.98 -120 237.96 -120 240 C-119.34 240 -118.68 240 -118 240 C-118 241.32 -118 242.64 -118 244 C-117.34 244 -116.68 244 -116 244 C-116 245.32 -116 246.64 -116 248 C-115.34 248 -114.68 248 -114 248 C-114 249.32 -114 250.64 -114 252 C-113.34 252 -112.68 252 -112 252 C-112 253.32 -112 254.64 -112 256 C-111.34 256 -110.68 256 -110 256 C-110 256.66 -110 257.32 -110 258 C-109.34 258 -108.68 258 -108 258 C-108 259.32 -108 260.64 -108 262 C-107.34 262 -106.68 262 -106 262 C-106 262.66 -106 263.32 -106 264 C-105.34 264 -104.68 264 -104 264 C-104 265.32 -104 266.64 -104 268 C-103.34 268 -102.68 268 -102 268 C-102 268.66 -102 269.32 -102 270 C-101.34 270 -100.68 270 -100 270 C-100 270.66 -100 271.32 -100 272 C-99.34 272 -98.68 272 -98 272 C-98 272.66 -98 273.32 -98 274 C-97.34 274 -96.68 274 -96 274 C-96 275.32 -96 276.64 -96 278 C-95.34 278 -94.68 278 -94 278 C-94 278.66 -94 279.32 -94 280 C-93.34 280 -92.68 280 -92 280 C-92 280.66 -92 281.32 -92 282 C-91.34 282 -90.68 282 -90 282 C-90 282.66 -90 283.32 -90 284 C-89.34 284 -88.68 284 -88 284 C-88 284.66 -88 285.32 -88 286 C-87.34 286 -86.68 286 -86 286 C-86 286.66 -86 287.32 -86 288 C-85.34 288 -84.68 288 -84 288 C-84 288.66 -84 289.32 -84 290 C-83.34 290 -82.68 290 -82 290 C-82 290.66 -82 291.32 -82 292 C-81.34 292 -80.68 292 -80 292 C-80 292.66 -80 293.32 -80 294 C-78.68 294 -77.36 294 -76 294 C-76 294.66 -76 295.32 -76 296 C-75.34 296 -74.68 296 -74 296 C-74 296.66 -74 297.32 -74 298 C-73.34 298 -72.68 298 -72 298 C-72 298.66 -72 299.32 -72 300 C-71.34 300 -70.68 300 -70 300 C-70 300.66 -70 301.32 -70 302 C-68.68 302 -67.36 302 -66 302 C-66 302.66 -66 303.32 -66 304 C-65.34 304 -64.68 304 -64 304 C-64 304.66 -64 305.32 -64 306 C-62.68 306 -61.36 306 -60 306 C-60 306.66 -60 307.32 -60 308 C-59.34 308 -58.68 308 -58 308 C-58 308.66 -58 309.32 -58 310 C-56.68 310 -55.36 310 -54 310 C-54 310.66 -54 311.32 -54 312 C-52.68 312 -51.36 312 -50 312 C-50 312.66 -50 313.32 -50 314 C-48.68 314 -47.36 314 -46 314 C-46 314.66 -46 315.32 -46 316 C-44.68 316 -43.36 316 -42 316 C-42 316.66 -42 317.32 -42 318 C-40.68 318 -39.36 318 -38 318 C-38 318.66 -38 319.32 -38 320 C-36.68 320 -35.36 320 -34 320 C-34 320.66 -34 321.32 -34 322 C-32.02 322 -30.04 322 -28 322 C-28 322.66 -28 323.32 -28 324 C-25.36 324 -22.72 324 -20 324 C-20 324.66 -20 325.32 -20 326 C-17.36 326 -14.72 326 -12 326 C-12 326.66 -12 327.32 -12 328 C-9.36 328 -6.72 328 -4 328 C-4 328.66 -4 329.32 -4 330 C1.28 330 6.56 330 12 330 C12 330.66 12 331.32 12 332 C19.92 332 27.84 332 36 332 C36 331.34 36 330.68 36 330 C39.96 330 43.92 330 48 330 C48 329.34 48 328.68 48 328 C51.96 328 55.92 328 60 328 C60 327.34 60 326.68 60 326 C62.64 326 65.28 326 68 326 C68 325.34 68 324.68 68 324 C69.32 324 70.64 324 72 324 C72 323.34 72 322.68 72 322 C73.98 322 75.96 322 78 322 C78 321.34 78 320.68 78 320 C79.98 320 81.96 320 84 320 C84 319.34 84 318.68 84 318 C85.32 318 86.64 318 88 318 C88 317.34 88 316.68 88 316 C89.32 316 90.64 316 92 316 C92 315.34 92 314.68 92 314 C93.32 314 94.64 314 96 314 C96 313.34 96 312.68 96 312 C97.32 312 98.64 312 100 312 C100 311.34 100 310.68 100 310 C100.66 310 101.32 310 102 310 C102 309.34 102 308.68 102 308 C103.32 308 104.64 308 106 308 C106 307.34 106 306.68 106 306 C107.32 306 108.64 306 110 306 C110 305.34 110 304.68 110 304 C110.66 304 111.32 304 112 304 C112 303.34 112 302.68 112 302 C112.66 302 113.32 302 114 302 C114 301.34 114 300.68 114 300 C115.32 300 116.64 300 118 300 C118 299.34 118 298.68 118 298 C118.66 298 119.32 298 120 298 C120 297.34 120 296.68 120 296 C120.66 296 121.32 296 122 296 C122 295.34 122 294.68 122 294 C122.66 294 123.32 294 124 294 C124 293.34 124 292.68 124 292 C125.32 292 126.64 292 128 292 C128 291.34 128 290.68 128 290 C128.66 290 129.32 290 130 290 C130 289.34 130 288.68 130 288 C130.66 288 131.32 288 132 288 C132 287.34 132 286.68 132 286 C132.66 286 133.32 286 134 286 C134 285.34 134 284.68 134 284 C134.66 284 135.32 284 136 284 C136 283.34 136 282.68 136 282 C136.66 282 137.32 282 138 282 C138 281.34 138 280.68 138 280 C138.66 280 139.32 280 140 280 C140 278.68 140 277.36 140 276 C140.66 276 141.32 276 142 276 C142 275.34 142 274.68 142 274 C142.66 274 143.32 274 144 274 C144 273.34 144 272.68 144 272 C144.66 272 145.32 272 146 272 C146 271.34 146 270.68 146 270 C146.66 270 147.32 270 148 270 C148 268.68 148 267.36 148 266 C148.66 266 149.32 266 150 266 C150 265.34 150 264.68 150 264 C150.66 264 151.32 264 152 264 C152 262.68 152 261.36 152 260 C152.66 260 153.32 260 154 260 C154 259.34 154 258.68 154 258 C154.66 258 155.32 258 156 258 C156 256.68 156 255.36 156 254 C156.66 254 157.32 254 158 254 C158 252.68 158 251.36 158 250 C158.66 250 159.32 250 160 250 C160 248.68 160 247.36 160 246 C160.66 246 161.32 246 162 246 C162 244.68 162 243.36 162 242 C162.66 242 163.32 242 164 242 C164 240.68 164 239.36 164 238 C164.66 238 165.32 238 166 238 C166 236.68 166 235.36 166 234 C166.66 234 167.32 234 168 234 C168 232.02 168 230.04 168 228 C168.66 228 169.32 228 170 228 C170 226.02 170 224.04 170 222 C170.66 222 171.32 222 172 222 C172 220.68 172 219.36 172 218 C172.66 218 173.32 218 174 218 C174 214.7 174 211.4 174 208 C174.66 208 175.32 208 176 208 C176 204.7 176 201.4 176 198 C176.66 198 177.32 198 178 198 C178 182.82 178 167.64 178 152 C177.34 152 176.68 152 176 152 C176 148.04 176 144.08 176 140 C175.34 140 174.68 140 174 140 C174 138.02 174 136.04 174 134 C173.34 134 172.68 134 172 134 C172 132.02 172 130.04 172 128 C171.34 128 170.68 128 170 128 C170 126.02 170 124.04 170 122 C169.34 122 168.68 122 168 122 C168 120.02 168 118.04 168 116 C167.34 116 166.68 116 166 116 C166 114.68 166 113.36 166 112 C165.34 112 164.68 112 164 112 C164 110.68 164 109.36 164 108 C163.34 108 162.68 108 162 108 C162 106.68 162 105.36 162 104 C161.34 104 160.68 104 160 104 C160 102.68 160 101.36 160 100 C159.34 100 158.68 100 158 100 C158 98.68 158 97.36 158 96 C157.34 96 156.68 96 156 96 C156 95.34 156 94.68 156 94 C155.34 94 154.68 94 154 94 C154 92.68 154 91.36 154 90 C153.34 90 152.68 90 152 90 C152 89.34 152 88.68 152 88 C151.34 88 150.68 88 150 88 C150 86.68 150 85.36 150 84 C149.34 84 148.68 84 148 84 C148 83.34 148 82.68 148 82 C147.34 82 146.68 82 146 82 C146 81.34 146 80.68 146 80 C145.34 80 144.68 80 144 80 C144 78.68 144 77.36 144 76 C143.34 76 142.68 76 142 76 C142 75.34 142 74.68 142 74 C141.34 74 140.68 74 140 74 C140 73.34 140 72.68 140 72 C139.34 72 138.68 72 138 72 C138 71.34 138 70.68 138 70 C137.34 70 136.68 70 136 70 C136 69.34 136 68.68 136 68 C135.34 68 134.68 68 134 68 C134 67.34 134 66.68 134 66 C133.34 66 132.68 66 132 66 C132 65.34 132 64.68 132 64 C131.34 64 130.68 64 130 64 C130 63.34 130 62.68 130 62 C129.34 62 128.68 62 128 62 C128 61.34 128 60.68 128 60 C127.34 60 126.68 60 126 60 C126 59.34 126 58.68 126 58 C125.34 58 124.68 58 124 58 C124 57.34 124 56.68 124 56 C122.68 56 121.36 56 120 56 C120 55.34 120 54.68 120 54 C119.34 54 118.68 54 118 54 C118 53.34 118 52.68 118 52 C117.34 52 116.68 52 116 52 C116 51.34 116 50.68 116 50 C114.68 50 113.36 50 112 50 C112 49.34 112 48.68 112 48 C111.34 48 110.68 48 110 48 C110 47.34 110 46.68 110 46 C109.34 46 108.68 46 108 46 C108 45.34 108 44.68 108 44 C106.68 44 105.36 44 104 44 C104 43.34 104 42.68 104 42 C102.68 42 101.36 42 100 42 C100 41.34 100 40.68 100 40 C99.34 40 98.68 40 98 40 C98 39.34 98 38.68 98 38 C96.68 38 95.36 38 94 38 C94 37.34 94 36.68 94 36 C92.02 36 90.04 36 88 36 C88 35.34 88 34.68 88 34 C86.68 34 85.36 34 84 34 C84 33.34 84 32.68 84 32 C82.68 32 81.36 32 80 32 C80 31.34 80 30.68 80 30 C78.02 30 76.04 30 74 30 C74 29.34 74 28.68 74 28 C72.02 28 70.04 28 68 28 C68 27.34 68 26.68 68 26 C65.36 26 62.72 26 60 26 C60 25.34 60 24.68 60 24 C56.7 24 53.4 24 50 24 C50 23.34 50 22.68 50 22 C47.36 22 44.72 22 42 22 C42 21.34 42 20.68 42 20 C28.8 20 15.6 20 2 20 Z " fill="currentColor" transform="translate(466,216)"/>
<path d="M0 0 C0.66 0 1.32 0 2 0 C2 0.66 2 1.32 2 2 C3.32 2 4.64 2 6 2 C6 2.66 6 3.32 6 4 C6.66 4 7.32 4 8 4 C8 4.66 8 5.32 8 6 C9.32 6 10.64 6 12 6 C12 6.66 12 7.32 12 8 C13.32 8 14.64 8 16 8 C16 8.66 16 9.32 16 10 C17.98 10 19.96 10 22 10 C22 10.66 22 11.32 22 12 C23.32 12 24.64 12 26 12 C26 12.66 26 13.32 26 14 C27.32 14 28.64 14 30 14 C30 14.66 30 15.32 30 16 C31.98 16 33.96 16 36 16 C36 16.66 36 17.32 36 18 C37.98 18 39.96 18 42 18 C42 18.66 42 19.32 42 20 C44.64 20 47.28 20 50 20 C50 20.66 50 21.32 50 22 C52.64 22 55.28 22 58 22 C58 22.66 58 23.32 58 24 C60.64 24 63.28 24 66 24 C66 24.66 66 25.32 66 26 C69.96 26 73.92 26 78 26 C78 26.66 78 27.32 78 28 C83.94 28 89.88 28 96 28 C96 28.66 96 29.32 96 30 C98.64 30 101.28 30 104 30 C104 30.66 104 31.32 104 32 C112.58 32 121.16 32 130 32 C130 32.66 130 33.32 130 34 C156.4 34 182.8 34 210 34 C210 33.34 210 32.68 210 32 C214.62 32 219.24 32 224 32 C224 31.34 224 30.68 224 30 C231.26 30 238.52 30 246 30 C246 30.66 246 31.32 246 32 C245.34 32 244.68 32 244 32 C244 32.66 244 33.32 244 34 C243.34 34 242.68 34 242 34 C242 35.32 242 36.64 242 38 C241.34 38 240.68 38 240 38 C240 38.66 240 39.32 240 40 C239.34 40 238.68 40 238 40 C238 40.66 238 41.32 238 42 C237.34 42 236.68 42 236 42 C236 43.32 236 44.64 236 46 C235.34 46 234.68 46 234 46 C234 46.66 234 47.32 234 48 C233.34 48 232.68 48 232 48 C232 49.32 232 50.64 232 52 C231.34 52 230.68 52 230 52 C230 52.66 230 53.32 230 54 C229.34 54 228.68 54 228 54 C228 55.32 228 56.64 228 58 C227.34 58 226.68 58 226 58 C226 59.32 226 60.64 226 62 C225.34 62 224.68 62 224 62 C224 63.32 224 64.64 224 66 C223.34 66 222.68 66 222 66 C222 67.32 222 68.64 222 70 C221.34 70 220.68 70 220 70 C220 71.32 220 72.64 220 74 C219.34 74 218.68 74 218 74 C218 75.32 218 76.64 218 78 C217.34 78 216.68 78 216 78 C216 79.32 216 80.64 216 82 C215.34 82 214.68 82 214 82 C214 83.98 214 85.96 214 88 C213.34 88 212.68 88 212 88 C212 90.64 212 93.28 212 96 C211.34 96 210.68 96 210 96 C210 97.98 210 99.96 210 102 C209.34 102 208.68 102 208 102 C208 103.32 208 104.64 208 106 C207.34 106 206.68 106 206 106 C206 108.64 206 111.28 206 114 C205.34 114 204.68 114 204 114 C204 117.3 204 120.6 204 124 C174.3 124 144.6 124 114 124 C114 123.34 114 122.68 114 122 C108.72 122 103.44 122 98 122 C98 121.34 98 120.68 98 120 C94.04 120 90.08 120 86 120 C86 119.34 86 118.68 86 118 C82.7 118 79.4 118 76 118 C76 117.34 76 116.68 76 116 C72.04 116 68.08 116 64 116 C64 115.34 64 114.68 64 114 C61.36 114 58.72 114 56 114 C56 113.34 56 112.68 56 112 C54.68 112 53.36 112 52 112 C52 111.34 52 110.68 52 110 C48.7 110 45.4 110 42 110 C42 109.34 42 108.68 42 108 C40.02 108 38.04 108 36 108 C36 107.34 36 106.68 36 106 C34.68 106 33.36 106 32 106 C32 105.34 32 104.68 32 104 C30.68 104 29.36 104 28 104 C28 103.34 28 102.68 28 102 C26.02 102 24.04 102 22 102 C22 101.34 22 100.68 22 100 C21.34 100 20.68 100 20 100 C20 99.34 20 98.68 20 98 C18.68 98 17.36 98 16 98 C16 97.34 16 96.68 16 96 C14.68 96 13.36 96 12 96 C12 95.34 12 94.68 12 94 C11.34 94 10.68 94 10 94 C10 93.34 10 92.68 10 92 C9.34 92 8.68 92 8 92 C8 91.34 8 90.68 8 90 C7.34 90 6.68 90 6 90 C6 89.34 6 88.68 6 88 C5.34 88 4.68 88 4 88 C4 87.34 4 86.68 4 86 C3.34 86 2.68 86 2 86 C2 84.68 2 83.36 2 82 C1.34 82 0.68 82 0 82 C0 54.94 0 27.88 0 0 Z " fill="currentColor" transform="translate(96,238)"/>
<path d="M0 0 C1.32 0 2.64 0 4 0 C4 0.66 4 1.32 4 2 C5.32 2 6.64 2 8 2 C8 2.66 8 3.32 8 4 C8.66 4 9.32 4 10 4 C10 4.66 10 5.32 10 6 C11.32 6 12.64 6 14 6 C14 6.66 14 7.32 14 8 C15.32 8 16.64 8 18 8 C18 8.66 18 9.32 18 10 C19.98 10 21.96 10 24 10 C24 10.66 24 11.32 24 12 C25.98 12 27.96 12 30 12 C30 12.66 30 13.32 30 14 C31.32 14 32.64 14 34 14 C34 14.66 34 15.32 34 16 C35.98 16 37.96 16 40 16 C40 16.66 40 17.32 40 18 C43.3 18 46.6 18 50 18 C50 18.66 50 19.32 50 20 C51.32 20 52.64 20 54 20 C54 20.66 54 21.32 54 22 C56.64 22 59.28 22 62 22 C62 22.66 62 23.32 62 24 C65.3 24 68.6 24 72 24 C72 24.66 72 25.32 72 26 C76.62 26 81.24 26 86 26 C86 26.66 86 27.32 86 28 C89.96 28 93.92 28 98 28 C98 28.66 98 29.32 98 30 C108.56 30 119.12 30 130 30 C130 30.66 130 31.32 130 32 C153.76 32 177.52 32 202 32 C202 42.56 202 53.12 202 64 C202.66 64 203.32 64 204 64 C204 68.62 204 73.24 204 78 C204.66 78 205.32 78 206 78 C206 81.3 206 84.6 206 88 C206.66 88 207.32 88 208 88 C208 89.98 208 91.96 208 94 C208.66 94 209.32 94 210 94 C210 95.98 210 97.96 210 100 C210.66 100 211.32 100 212 100 C212 101.98 212 103.96 212 106 C212.66 106 213.32 106 214 106 C214 107.98 214 109.96 214 112 C214.66 112 215.32 112 216 112 C216 113.32 216 114.64 216 116 C216.66 116 217.32 116 218 116 C218 117.98 218 119.96 218 122 C214.04 122 210.08 122 206 122 C206 122.66 206 123.32 206 124 C179.6 124 153.2 124 126 124 C126 123.34 126 122.68 126 122 C119.4 122 112.8 122 106 122 C106 121.34 106 120.68 106 120 C102.04 120 98.08 120 94 120 C94 119.34 94 118.68 94 118 C88.72 118 83.44 118 78 118 C78 117.34 78 116.68 78 116 C74.7 116 71.4 116 68 116 C68 115.34 68 114.68 68 114 C66.02 114 64.04 114 62 114 C62 113.34 62 112.68 62 112 C58.7 112 55.4 112 52 112 C52 111.34 52 110.68 52 110 C50.02 110 48.04 110 46 110 C46 109.34 46 108.68 46 108 C44.02 108 42.04 108 40 108 C40 107.34 40 106.68 40 106 C38.68 106 37.36 106 36 106 C36 105.34 36 104.68 36 104 C34.02 104 32.04 104 30 104 C30 103.34 30 102.68 30 102 C28.68 102 27.36 102 26 102 C26 101.34 26 100.68 26 100 C24.68 100 23.36 100 22 100 C22 99.34 22 98.68 22 98 C20.68 98 19.36 98 18 98 C18 97.34 18 96.68 18 96 C16.68 96 15.36 96 14 96 C14 95.34 14 94.68 14 94 C13.34 94 12.68 94 12 94 C12 93.34 12 92.68 12 92 C10.68 92 9.36 92 8 92 C8 91.34 8 90.68 8 90 C7.34 90 6.68 90 6 90 C6 89.34 6 88.68 6 88 C5.34 88 4.68 88 4 88 C4 87.34 4 86.68 4 86 C3.34 86 2.68 86 2 86 C2 84.68 2 83.36 2 82 C1.34 82 0.68 82 0 82 C0 54.94 0 27.88 0 0 Z " fill="currentColor" transform="translate(96,350)"/>
<path d="M0 0 C29.04 0 58.08 0 88 0 C88 0.66 88 1.32 88 2 C84.7 2 81.4 2 78 2 C78 2.66 78 3.32 78 4 C52.92 4 27.84 4 2 4 C2 3.34 2 2.68 2 2 C1.34 2 0.68 2 0 2 C0 1.34 0 0.68 0 0 Z " fill="currentColor" transform="translate(220,248)"/>
<path d="M0 0 C27.06 0 54.12 0 82 0 C82 0.66 82 1.32 82 2 C81.34 2 80.68 2 80 2 C80 2.66 80 3.32 80 4 C53.6 4 27.2 4 0 4 C0 2.68 0 1.36 0 0 Z " fill="currentColor" transform="translate(222,470)"/>
<path d="M0 0 C1.32 0 2.64 0 4 0 C4 0.66 4 1.32 4 2 C3.34 2 2.68 2 2 2 C2 27.74 2 53.48 2 80 C1.34 80 0.68 80 0 80 C0 53.6 0 27.2 0 0 Z " fill="currentColor" transform="translate(94,348)"/>
<path d="M0 0 C1.32 0 2.64 0 4 0 C4 0.66 4 1.32 4 2 C3.34 2 2.68 2 2 2 C2 27.74 2 53.48 2 80 C1.34 80 0.68 80 0 80 C0 53.6 0 27.2 0 0 Z " fill="currentColor" transform="translate(94,126)"/>
<path d="M0 0 C1.32 0 2.64 0 4 0 C4 26.4 4 52.8 4 80 C3.34 80 2.68 80 2 80 C2 54.26 2 28.52 2 2 C1.34 2 0.68 2 0 2 C0 1.34 0 0.68 0 0 Z " fill="currentColor" transform="translate(430,126)"/>
<path d="M0 0 C1.32 0 2.64 0 4 0 C4 24.42 4 48.84 4 74 C3.34 74 2.68 74 2 74 C2 50.9 2 27.8 2 4 C1.34 4 0.68 4 0 4 C0 2.68 0 1.36 0 0 Z " fill="currentColor" transform="translate(428,128)"/>
<path d="M0 0 C11.88 0 23.76 0 36 0 C36 1.32 36 2.64 36 4 C25.44 4 14.88 4 4 4 C4 3.34 4 2.68 4 2 C2.68 2 1.36 2 0 2 C0 1.34 0 0.68 0 0 Z " fill="currentColor" transform="translate(470,564)"/>
<path d="M0 0 C5.94 0 11.88 0 18 0 C18 0.66 18 1.32 18 2 C20.64 2 23.28 2 26 2 C26 2.66 26 3.32 26 4 C20.72 4 15.44 4 10 4 C10 3.34 10 2.68 10 2 C6.7 2 3.4 2 0 2 C0 1.34 0 0.68 0 0 Z " fill="currentColor" transform="translate(498,234)"/>
<path d="M0 0 C3.96 0 7.92 0 12 0 C12 0.66 12 1.32 12 2 C10.02 2 8.04 2 6 2 C6 2.66 6 3.32 6 4 C5.34 4 4.68 4 4 4 C4 4.66 4 5.32 4 6 C2.02 6 0.04 6 -2 6 C-2 5.34 -2 4.68 -2 4 C-3.32 4 -4.64 4 -6 4 C-6 3.34 -6 2.68 -6 2 C-4.02 2 -2.04 2 0 2 C0 1.34 0 0.68 0 0 Z " fill="currentColor" transform="translate(438,222)"/>
<path d="M0 0 C0.66 0 1.32 0 2 0 C2 1.32 2 2.64 2 4 C0.68 4 -0.64 4 -2 4 C-2 4.66 -2 5.32 -2 6 C-2.66 6 -3.32 6 -4 6 C-4 6.66 -4 7.32 -4 8 C-5.32 8 -6.64 8 -8 8 C-8 8.66 -8 9.32 -8 10 C-9.98 10 -11.96 10 -14 10 C-14 9.34 -14 8.68 -14 8 C-12.68 8 -11.36 8 -10 8 C-10 7.34 -10 6.68 -10 6 C-8.68 6 -7.36 6 -6 6 C-6 5.34 -6 4.68 -6 4 C-5.34 4 -4.68 4 -4 4 C-4 3.34 -4 2.68 -4 2 C-2.68 2 -1.36 2 0 2 C0 1.34 0 0.68 0 0 Z " fill="currentColor" transform="translate(572,522)"/>
<path d="M0 0 C5.28 0 10.56 0 16 0 C16 1.32 16 2.64 16 4 C14.02 4 12.04 4 10 4 C10 3.34 10 2.68 10 2 C6.7 2 3.4 2 0 2 C0 1.34 0 0.68 0 0 Z " fill="currentColor" transform="translate(148,460)"/>
<path d="M0 0 C0.66 0 1.32 0 2 0 C2 3.3 2 6.6 2 10 C1.34 10 0.68 10 0 10 C0 11.98 0 13.96 0 16 C-0.66 16 -1.32 16 -2 16 C-2 12.04 -2 8.08 -2 4 C-1.34 4 -0.68 4 0 4 C0 2.68 0 1.36 0 0 Z " fill="currentColor" transform="translate(306,324)"/>
<path d="M0 0 C1.32 0 2.64 0 4 0 C4 3.3 4 6.6 4 10 C3.34 10 2.68 10 2 10 C2 10.66 2 11.32 2 12 C1.34 12 0.68 12 0 12 C0 8.04 0 4.08 0 0 Z " fill="currentColor" transform="translate(430,86)"/>
<path d="M0 0 C1.32 0 2.64 0 4 0 C4 1.32 4 2.64 4 4 C3.34 4 2.68 4 2 4 C2 4.66 2 5.32 2 6 C0.68 6 -0.64 6 -2 6 C-2 6.66 -2 7.32 -2 8 C-2.66 8 -3.32 8 -4 8 C-4 7.34 -4 6.68 -4 6 C-4.66 6 -5.32 6 -6 6 C-6 5.34 -6 4.68 -6 4 C-4.68 4 -3.36 4 -2 4 C-2 3.34 -2 2.68 -2 2 C-1.34 2 -0.68 2 0 2 C0 1.34 0 0.68 0 0 Z " fill="currentColor" transform="translate(578,542)"/>
<path d="M0 0 C0.66 0 1.32 0 2 0 C2 0.66 2 1.32 2 2 C2.66 2 3.32 2 4 2 C4 2.66 4 3.32 4 4 C2.68 4 1.36 4 0 4 C0 5.32 0 6.64 0 8 C1.98 8 3.96 8 6 8 C6 8.66 6 9.32 6 10 C3.36 10 0.72 10 -2 10 C-2 7.36 -2 4.72 -2 2 C-1.34 2 -0.68 2 0 2 C0 1.34 0 0.68 0 0 Z " fill="currentColor" transform="translate(406,354)"/>
<path d="M0 0 C0.66 0 1.32 0 2 0 C2 2.64 2 5.28 2 8 C1.34 8 0.68 8 0 8 C0 10.64 0 13.28 0 16 C-0.66 16 -1.32 16 -2 16 C-2 12.04 -2 8.08 -2 4 C-1.34 4 -0.68 4 0 4 C0 2.68 0 1.36 0 0 Z " fill="currentColor" transform="translate(300,344)"/>
<path d="M0 0 C1.32 0 2.64 0 4 0 C4 1.32 4 2.64 4 4 C4.66 4 5.32 4 6 4 C6 4.66 6 5.32 6 6 C7.32 6 8.64 6 10 6 C10 7.32 10 8.64 10 10 C9.34 10 8.68 10 8 10 C8 9.34 8 8.68 8 8 C6.68 8 5.36 8 4 8 C4 7.34 4 6.68 4 6 C3.34 6 2.68 6 2 6 C2 5.34 2 4.68 2 4 C1.34 4 0.68 4 0 4 C0 2.68 0 1.36 0 0 Z " fill="currentColor" transform="translate(562,250)"/>
<path d="M0 0 C0.66 0 1.32 0 2 0 C2 3.3 2 6.6 2 10 C1.34 10 0.68 10 0 10 C0 11.98 0 13.96 0 16 C-0.66 16 -1.32 16 -2 16 C-2.2358396 10.22192976 -1.86783046 5.48675196 0 0 Z " fill="currentColor" transform="translate(336,346)"/>
<path d="M0 0 C1.32 0 2.64 0 4 0 C4 0.66 4 1.32 4 2 C4.66 2 5.32 2 6 2 C6 2.66 6 3.32 6 4 C6.66 4 7.32 4 8 4 C8 4.66 8 5.32 8 6 C5.36 6 2.72 6 0 6 C0 4.02 0 2.04 0 0 Z " fill="currentColor" transform="translate(386,510)"/>
<path d="M0 0 C1.32 0 2.64 0 4 0 C4 1.98 4 3.96 4 6 C3.34 6 2.68 6 2 6 C2 6.66 2 7.32 2 8 C0.68 8 -0.64 8 -2 8 C-2 6.68 -2 5.36 -2 4 C-1.34 4 -0.68 4 0 4 C0 2.68 0 1.36 0 0 Z " fill="currentColor" transform="translate(630,454)"/>
<path d="M0 0 C2.64 0 5.28 0 8 0 C8 0.66 8 1.32 8 2 C9.98 2 11.96 2 14 2 C14 2.66 14 3.32 14 4 C10.7 4 7.4 4 4 4 C4 3.34 4 2.68 4 2 C2.68 2 1.36 2 0 2 C0 1.34 0 0.68 0 0 Z " fill="currentColor" transform="translate(150,372)"/>
<path d="M0 0 C1.98 0 3.96 0 6 0 C6 0.66 6 1.32 6 2 C4.68 2 3.36 2 2 2 C2 2.66 2 3.32 2 4 C0.68 4 -0.64 4 -2 4 C-2 4.66 -2 5.32 -2 6 C-2.66 6 -3.32 6 -4 6 C-4 5.34 -4 4.68 -4 4 C-5.32 4 -6.64 4 -8 4 C-8 3.34 -8 2.68 -8 2 C-5.36 2 -2.72 2 0 2 C0 1.34 0 0.68 0 0 Z " fill="currentColor" transform="translate(404,216)"/>
<path d="M0 0 C0.33 0.66 0.66 1.32 1 2 C1.66 2 2.32 2 3 2 C3 2.66 3 3.32 3 4 C2.34 4 1.68 4 1 4 C1 5.98 1 7.96 1 10 C0.34 10 -0.32 10 -1 10 C-1 9.34 -1 8.68 -1 8 C-1.66 8 -2.32 8 -3 8 C-3 7.34 -3 6.68 -3 6 C-3.66 6 -4.32 6 -5 6 C-5 5.34 -5 4.68 -5 4 C-3.68 4 -2.36 4 -1 4 C-0.67 2.68 -0.34 1.36 0 0 Z " fill="currentColor" transform="translate(309,316)"/>
<path d="M0 0 C2.64 0 5.28 0 8 0 C8 0.66 8 1.32 8 2 C6.68 2 5.36 2 4 2 C4 2.66 4 3.32 4 4 C1.36 4 -1.28 4 -4 4 C-4 3.34 -4 2.68 -4 2 C-2.68 2 -1.36 2 0 2 C0 1.34 0 0.68 0 0 Z " fill="currentColor" transform="translate(130,60)"/>
<path d="M0 0 C1.98 0 3.96 0 6 0 C6 0.66 6 1.32 6 2 C5.34 2 4.68 2 4 2 C4 2.66 4 3.32 4 4 C4.66 4 5.32 4 6 4 C6 4.66 6 5.32 6 6 C4.68 6 3.36 6 2 6 C2 5.34 2 4.68 2 4 C1.34 4 0.68 4 0 4 C0 2.68 0 1.36 0 0 Z " fill="currentColor" transform="translate(414,530)"/>
<path d="M0 0 C0.66 0 1.32 0 2 0 C2 0.66 2 1.32 2 2 C2.66 2 3.32 2 4 2 C4 2.66 4 3.32 4 4 C4.66 4 5.32 4 6 4 C6 4.66 6 5.32 6 6 C6.66 6 7.32 6 8 6 C8 6.66 8 7.32 8 8 C6.68 8 5.36 8 4 8 C4 7.34 4 6.68 4 6 C3.34 6 2.68 6 2 6 C2 5.34 2 4.68 2 4 C1.34 4 0.68 4 0 4 C0 2.68 0 1.36 0 0 Z " fill="currentColor" transform="translate(360,508)"/>
<path d="M0 0 C0.66 0 1.32 0 2 0 C2 3.3 2 6.6 2 10 C0.68 10 -0.64 10 -2 10 C-2 8.68 -2 7.36 -2 6 C-1.34 6 -0.68 6 0 6 C0 4.02 0 2.04 0 0 Z " fill="currentColor" transform="translate(660,428)"/>
<path d="M0 0 C0.66 0 1.32 0 2 0 C2 0.66 2 1.32 2 2 C2.66 2 3.32 2 4 2 C4 5.3 4 8.6 4 12 C3.34 12 2.68 12 2 12 C2 9.36 2 6.72 2 4 C1.34 4 0.68 4 0 4 C0 2.68 0 1.36 0 0 Z " fill="currentColor" transform="translate(656,338)"/>
<path d="M0 0 C1.32 0 2.64 0 4 0 C4 3.3 4 6.6 4 10 C3.34 10 2.68 10 2 10 C2 8.02 2 6.04 2 4 C1.34 4 0.68 4 0 4 C0 2.68 0 1.36 0 0 Z " fill="currentColor" transform="translate(636,340)"/>
<path d="M0 0 C2.64 0 5.28 0 8 0 C8 0.66 8 1.32 8 2 C9.32 2 10.64 2 12 2 C12 2.66 12 3.32 12 4 C10.02 4 8.04 4 6 4 C6 3.34 6 2.68 6 2 C4.02 2 2.04 2 0 2 C0 1.34 0 0.68 0 0 Z " fill="currentColor" transform="translate(536,224)"/>
<path d="M0 0 C1.32 0 2.64 0 4 0 C4 0.66 4 1.32 4 2 C5.32 2 6.64 2 8 2 C8 3.32 8 4.64 8 6 C6.68 6 5.36 6 4 6 C4 5.34 4 4.68 4 4 C3.34 4 2.68 4 2 4 C2 3.34 2 2.68 2 2 C1.34 2 0.68 2 0 2 C0 1.34 0 0.68 0 0 Z " fill="currentColor" transform="translate(112,222)"/>
<path d="M0 0 C0.99 0 1.98 0 3 0 C3 0.66 3 1.32 3 2 C3.66 2 4.32 2 5 2 C5 3.32 5 4.64 5 6 C3.68 6 2.36 6 1 6 C1 5.34 1 4.68 1 4 C0.34 4 -0.32 4 -1 4 C-0.67 2.68 -0.34 1.36 0 0 Z " fill="currentColor" transform="translate(401,254)"/>
<path d="M0 0 C2.64 0 5.28 0 8 0 C8 1.32 8 2.64 8 4 C6.68 4 5.36 4 4 4 C4 3.34 4 2.68 4 2 C2.68 2 1.36 2 0 2 C0 1.34 0 0.68 0 0 Z " fill="currentColor" transform="translate(410,548)"/>
<path d="M0 0 C0.66 0 1.32 0 2 0 C2 1.32 2 2.64 2 4 C1.34 4 0.68 4 0 4 C0 4.66 0 5.32 0 6 C-0.66 6 -1.32 6 -2 6 C-2 5.34 -2 4.68 -2 4 C-3.32 4 -4.64 4 -6 4 C-6 3.34 -6 2.68 -6 2 C-4.02 2 -2.04 2 0 2 C0 1.34 0 0.68 0 0 Z " fill="currentColor" transform="translate(550,534)"/>
<path d="M0 0 C1.98 0 3.96 0 6 0 C6 0.66 6 1.32 6 2 C5.34 2 4.68 2 4 2 C4 2.66 4 3.32 4 4 C3.34 4 2.68 4 2 4 C2 4.66 2 5.32 2 6 C1.34 6 0.68 6 0 6 C0 4.02 0 2.04 0 0 Z " fill="currentColor" transform="translate(594,500)"/>
<path d="M0 0 C1.32 0 2.64 0 4 0 C4 2.64 4 5.28 4 8 C3.34 8 2.68 8 2 8 C2 6.68 2 5.36 2 4 C1.34 4 0.68 4 0 4 C0 2.68 0 1.36 0 0 Z " fill="currentColor" transform="translate(324,452)"/>
<path d="M0 0 C1.32 0 2.64 0 4 0 C4 0.66 4 1.32 4 2 C4.66 2 5.32 2 6 2 C6 2.66 6 3.32 6 4 C5.34 4 4.68 4 4 4 C4 5.32 4 6.64 4 8 C3.34 8 2.68 8 2 8 C2 6.02 2 4.04 2 2 C1.34 2 0.68 2 0 2 C0 1.34 0 0.68 0 0 Z " fill="currentColor" transform="translate(340,438)"/>
<path d="M0 0 C2.64 0 5.28 0 8 0 C8 1.32 8 2.64 8 4 C6.68 4 5.36 4 4 4 C4 3.34 4 2.68 4 2 C2.68 2 1.36 2 0 2 C0 1.34 0 0.68 0 0 Z " fill="currentColor" transform="translate(124,340)"/>
<path d="M0 0 C0.66 0 1.32 0 2 0 C2 2.64 2 5.28 2 8 C0.68 8 -0.64 8 -2 8 C-2 6.68 -2 5.36 -2 4 C-1.34 4 -0.68 4 0 4 C0 2.68 0 1.36 0 0 Z " fill="currentColor" transform="translate(330,314)"/>
<path d="M0 0 C0.66 0 1.32 0 2 0 C2 1.98 2 3.96 2 6 C1.34 6 0.68 6 0 6 C0 6.66 0 7.32 0 8 C-0.66 8 -1.32 8 -2 8 C-2 6.02 -2 4.04 -2 2 C-1.34 2 -0.68 2 0 2 C0 1.34 0 0.68 0 0 Z " fill="currentColor" transform="translate(356,304)"/>
<path d="M0 0 C0.66 0 1.32 0 2 0 C2 0.66 2 1.32 2 2 C2.66 2 3.32 2 4 2 C4 2.66 4 3.32 4 4 C4.66 4 5.32 4 6 4 C6 4.66 6 5.32 6 6 C4.02 6 2.04 6 0 6 C0 4.02 0 2.04 0 0 Z " fill="currentColor" transform="translate(600,284)"/>
<path d="M0 0 C1.98 0 3.96 0 6 0 C6 0.66 6 1.32 6 2 C5.34 2 4.68 2 4 2 C4 2.66 4 3.32 4 4 C3.34 4 2.68 4 2 4 C2 4.66 2 5.32 2 6 C1.34 6 0.68 6 0 6 C0 4.02 0 2.04 0 0 Z " fill="currentColor" transform="translate(486,280)"/>
<path d="M0 0 C1.32 0 2.64 0 4 0 C4 1.32 4 2.64 4 4 C1.36 4 -1.28 4 -4 4 C-4 3.34 -4 2.68 -4 2 C-2.68 2 -1.36 2 0 2 C0 1.34 0 0.68 0 0 Z " fill="currentColor" transform="translate(416,230)"/>
<path d="M0 0 C2.64 0 5.28 0 8 0 C8 0.66 8 1.32 8 2 C6.68 2 5.36 2 4 2 C4 2.66 4 3.32 4 4 C2.68 4 1.36 4 0 4 C0 2.68 0 1.36 0 0 Z " fill="currentColor" transform="translate(526,220)"/>
<path d="M0 0 C1.98 0 3.96 0 6 0 C6 1.32 6 2.64 6 4 C4.02 4 2.04 4 0 4 C0 2.68 0 1.36 0 0 Z " fill="currentColor" transform="translate(396,142)"/>
<path d="M0 0 C1.32 0 2.64 0 4 0 C4 0.66 4 1.32 4 2 C4.66 2 5.32 2 6 2 C6 2.66 6 3.32 6 4 C5.34 4 4.68 4 4 4 C4 4.66 4 5.32 4 6 C2.68 6 1.36 6 0 6 C0 5.34 0 4.68 0 4 C0.66 4 1.32 4 2 4 C2 3.34 2 2.68 2 2 C1.34 2 0.68 2 0 2 C0 1.34 0 0.68 0 0 Z " fill="currentColor" transform="translate(418,134)"/>
<path d="M0 0 C1.32 0 2.64 0 4 0 C4 0.66 4 1.32 4 2 C3.34 2 2.68 2 2 2 C2 2.66 2 3.32 2 4 C-0.64 4 -3.28 4 -6 4 C-6 3.34 -6 2.68 -6 2 C-4.02 2 -2.04 2 0 2 C0 1.34 0 0.68 0 0 Z " fill="currentColor" transform="translate(388,58)"/>
<path d="M0 0 C2.64 0 5.28 0 8 0 C8 0.66 8 1.32 8 2 C6.68 2 5.36 2 4 2 C4 2.66 4 3.32 4 4 C2.68 4 1.36 4 0 4 C0 2.68 0 1.36 0 0 Z " fill="currentColor" transform="translate(354,50)"/>
<path d="M0 0 C1.32 0 2.64 0 4 0 C5 3 5 3 4.0625 5.1875 C3.5365625 6.0846875 3.5365625 6.0846875 3 7 C2.01 6.67 1.02 6.34 0 6 C0 5.34 0 4.68 0 4 C0.66 4 1.32 4 2 4 C2 3.34 2 2.68 2 2 C1.34 2 0.68 2 0 2 C0 1.34 0 0.68 0 0 Z " fill="currentColor" transform="translate(404,236)"/>
<path d="M0 0 C0.66 0 1.32 0 2 0 C2 2.64 2 5.28 2 8 C1.34 8 0.68 8 0 8 C0 6.68 0 5.36 0 4 C-0.66 4 -1.32 4 -2 4 C-2 3.34 -2 2.68 -2 2 C-1.34 2 -0.68 2 0 2 C0 1.34 0 0.68 0 0 Z " fill="currentColor" transform="translate(614,484)"/>
<path d="M0 0 C0.66 0 1.32 0 2 0 C2 1.32 2 2.64 2 4 C2.66 4 3.32 4 4 4 C4 4.66 4 5.32 4 6 C2.68 6 1.36 6 0 6 C0 5.34 0 4.68 0 4 C-0.66 4 -1.32 4 -2 4 C-2 3.34 -2 2.68 -2 2 C-1.34 2 -0.68 2 0 2 C0 1.34 0 0.68 0 0 Z " fill="currentColor" transform="translate(350,464)"/>
<path d="M0 0 C1.32 0 2.64 0 4 0 C4 2.64 4 5.28 4 8 C3.34 8 2.68 8 2 8 C2 6.02 2 4.04 2 2 C1.34 2 0.68 2 0 2 C0 1.34 0 0.68 0 0 Z " fill="currentColor" transform="translate(328,462)"/>
<path d="M0 0 C0.66 0 1.32 0 2 0 C2 0.66 2 1.32 2 2 C2.66 2 3.32 2 4 2 C4 3.32 4 4.64 4 6 C2.68 6 1.36 6 0 6 C0 4.02 0 2.04 0 0 Z " fill="currentColor" transform="translate(308,460)"/>
<path d="M0 0 C0.66 0 1.32 0 2 0 C2 1.32 2 2.64 2 4 C2.66 4 3.32 4 4 4 C4 4.66 4 5.32 4 6 C3.34 6 2.68 6 2 6 C2 6.66 2 7.32 2 8 C1.34 8 0.68 8 0 8 C0 5.36 0 2.72 0 0 Z " fill="currentColor" transform="translate(346,456)"/>
<path d="M0 0 C1.32 0 2.64 0 4 0 C4 0.66 4 1.32 4 2 C4.66 2 5.32 2 6 2 C6 3.32 6 4.64 6 6 C5.34 6 4.68 6 4 6 C4 5.34 4 4.68 4 4 C3.34 4 2.68 4 2 4 C2 3.34 2 2.68 2 2 C1.34 2 0.68 2 0 2 C0 1.34 0 0.68 0 0 Z " fill="currentColor" transform="translate(106,440)"/>
<path d="M0 0 C0.66 0 1.32 0 2 0 C2 1.98 2 3.96 2 6 C2.66 6 3.32 6 4 6 C4 6.66 4 7.32 4 8 C2.68 8 1.36 8 0 8 C0 5.36 0 2.72 0 0 Z " fill="currentColor" transform="translate(402,358)"/>
<path d="M0 0 C1.32 0 2.64 0 4 0 C4 0.66 4 1.32 4 2 C4.66 2 5.32 2 6 2 C6 2.66 6 3.32 6 4 C4.02 4 2.04 4 0 4 C0 2.68 0 1.36 0 0 Z " fill="currentColor" transform="translate(406,358)"/>
<path d="M0 0 C0.66 0 1.32 0 2 0 C2 1.32 2 2.64 2 4 C1.34 4 0.68 4 0 4 C0 4.66 0 5.32 0 6 C-1.32 6 -2.64 6 -4 6 C-4 5.34 -4 4.68 -4 4 C-3.34 4 -2.68 4 -2 4 C-2 3.34 -2 2.68 -2 2 C-1.34 2 -0.68 2 0 2 C0 1.34 0 0.68 0 0 Z " fill="currentColor" transform="translate(428,332)"/>
<path d="M0 0 C2.64 0 5.28 0 8 0 C8 0.66 8 1.32 8 2 C7.34 2 6.68 2 6 2 C6 2.66 6 3.32 6 4 C5.34 4 4.68 4 4 4 C4 3.34 4 2.68 4 2 C2.68 2 1.36 2 0 2 C0 1.34 0 0.68 0 0 Z " fill="currentColor" transform="translate(108,332)"/>
<path d="M0 0 C1.32 0 2.64 0 4 0 C4 1.98 4 3.96 4 6 C3.34 6 2.68 6 2 6 C2 5.34 2 4.68 2 4 C1.34 4 0.68 4 0 4 C0 2.68 0 1.36 0 0 Z " fill="currentColor" transform="translate(632,328)"/>
<path d="M0 0 C0.66 0 1.32 0 2 0 C2 0.66 2 1.32 2 2 C2.66 2 3.32 2 4 2 C4 3.32 4 4.64 4 6 C2.68 6 1.36 6 0 6 C0 4.02 0 2.04 0 0 Z " fill="currentColor" transform="translate(650,326)"/>
<path d="M0 0 C1.32 0 2.64 0 4 0 C4 1.98 4 3.96 4 6 C3.34 6 2.68 6 2 6 C2 5.34 2 4.68 2 4 C1.34 4 0.68 4 0 4 C0 2.68 0 1.36 0 0 Z " fill="currentColor" transform="translate(606,286)"/>
<path d="M0 0 C0.66 0 1.32 0 2 0 C2 1.32 2 2.64 2 4 C1.34 4 0.68 4 0 4 C0 4.66 0 5.32 0 6 C-1.32 6 -2.64 6 -4 6 C-4 5.34 -4 4.68 -4 4 C-3.34 4 -2.68 4 -2 4 C-2 3.34 -2 2.68 -2 2 C-1.34 2 -0.68 2 0 2 C0 1.34 0 0.68 0 0 Z " fill="currentColor" transform="translate(354,278)"/>
<path d="M0 0 C0.66 0 1.32 0 2 0 C2 1.32 2 2.64 2 4 C1.34 4 0.68 4 0 4 C0 4.66 0 5.32 0 6 C-1.32 6 -2.64 6 -4 6 C-4 5.34 -4 4.68 -4 4 C-3.34 4 -2.68 4 -2 4 C-2 3.34 -2 2.68 -2 2 C-1.34 2 -0.68 2 0 2 C0 1.34 0 0.68 0 0 Z " fill="currentColor" transform="translate(364,266)"/>
<path d="M0 0 C1.98 0 3.96 0 6 0 C6 1.32 6 2.64 6 4 C4.68 4 3.36 4 2 4 C2 3.34 2 2.68 2 2 C1.34 2 0.68 2 0 2 C0 1.34 0 0.68 0 0 Z " fill="currentColor" transform="translate(134,232)"/>
<path d="M0 0 C0.66 0 1.32 0 2 0 C2 0.66 2 1.32 2 2 C3.98 2 5.96 2 8 2 C8 2.66 8 3.32 8 4 C5.36 4 2.72 4 0 4 C0 2.68 0 1.36 0 0 Z " fill="currentColor" transform="translate(548,226)"/>
<path d="M0 0 C1.32 0 2.64 0 4 0 C4 0.66 4 1.32 4 2 C3.34 2 2.68 2 2 2 C2 2.66 2 3.32 2 4 C0.02 4 -1.96 4 -4 4 C-4 3.34 -4 2.68 -4 2 C-2.68 2 -1.36 2 0 2 C0 1.34 0 0.68 0 0 Z " fill="currentColor" transform="translate(426,226)"/>
<path d="M0 0 C1.32 0 2.64 0 4 0 C4 1.98 4 3.96 4 6 C3.34 6 2.68 6 2 6 C2 5.34 2 4.68 2 4 C1.34 4 0.68 4 0 4 C0 2.68 0 1.36 0 0 Z " fill="currentColor" transform="translate(100,100)"/>
<path d="M0 0 C1.32 0 2.64 0 4 0 C4 0.66 4 1.32 4 2 C4.66 2 5.32 2 6 2 C6 2.66 6 3.32 6 4 C4.02 4 2.04 4 0 4 C0 2.68 0 1.36 0 0 Z " fill="currentColor" transform="translate(98,208)"/>
<path d="M0 0 C0.66 0 1.32 0 2 0 C2.33 2.31 2.66 4.62 3 7 C2.01 7.33 1.02 7.66 0 8 C0 5.36 0 2.72 0 0 Z " fill="currentColor" transform="translate(642,414)"/>
<path d="M0 0 C0.66 0 1.32 0 2 0 C2 0.66 2 1.32 2 2 C3.32 2 4.64 2 6 2 C6 2.66 6 3.32 6 4 C4.02 4.33 2.04 4.66 0 5 C0 3.35 0 1.7 0 0 Z " fill="currentColor" transform="translate(98,350)"/>
<path d="M0 0 C0.66 0 1.32 0 2 0 C2.33 0.99 2.66 1.98 3 3 C2.01 3.33 1.02 3.66 0 4 C0 4.66 0 5.32 0 6 C-0.66 6 -1.32 6 -2 6 C-2 4.68 -2 3.36 -2 2 C-1.34 2 -0.68 2 0 2 C0 1.34 0 0.68 0 0 Z " fill="currentColor" transform="translate(344,314)"/>
</svg>
